<svg width="62" height="62" viewBox="0 0 62 62" fill="none" xmlns="http://www.w3.org/2000/svg">
<g filter="url(#filter0_dd_21_88)">
<rect x="6" width="50" height="50" rx="23" fill="#ACBFA4"/>
<rect x="6.5" y="0.5" width="49" height="49" rx="22.5" stroke="#D9D9D9"/>
</g>
<g filter="url(#filter1_i_21_88)">
<path fill-rule="evenodd" clip-rule="evenodd" d="M26.7413 12.9886C28.0853 12.9298 28.5139 12.9167 31.9376 12.9167C35.3614 12.9167 35.7899 12.9308 37.1328 12.9886C38.4757 13.0463 39.3924 13.2499 40.1945 13.545C41.0344 13.8467 41.7963 14.3182 42.4265 14.9281C43.0682 15.526 43.5632 16.2491 43.8795 17.0484C44.1911 17.8107 44.4042 18.6819 44.4661 19.9561C44.528 21.2357 44.5417 21.643 44.5417 24.8959C44.5417 28.1498 44.5269 28.5571 44.4661 29.8345C44.4054 31.1087 44.1911 31.9799 43.8795 32.7422C43.5632 33.5416 43.0674 34.266 42.4265 34.8647C41.7963 35.4745 41.0344 35.945 40.1945 36.2456C39.3924 36.5418 38.4757 36.7443 37.1351 36.8031C35.7899 36.862 35.3614 36.875 31.9376 36.875C28.5139 36.875 28.0853 36.8609 26.7413 36.8031C25.4007 36.7454 24.484 36.5418 23.6819 36.2456C22.8408 35.945 22.0787 35.4737 21.4487 34.8647C20.8075 34.2665 20.3112 33.5425 19.9946 32.7433C19.6841 31.981 19.471 31.1098 19.4091 29.8356C19.3472 28.556 19.3335 28.1487 19.3335 24.8959C19.3335 21.6419 19.3484 21.2346 19.4091 19.9583C19.4698 18.6819 19.6841 17.8107 19.9946 17.0484C20.3117 16.2492 20.8083 15.5252 21.4498 14.927C22.079 14.3177 22.8403 13.8461 23.6808 13.545C24.4829 13.2499 25.3995 13.0474 26.7401 12.9886H26.7413ZM37.0308 15.1448C35.7017 15.0871 35.3029 15.0751 31.9376 15.0751C28.5723 15.0751 28.1736 15.0871 26.8444 15.1448C25.6149 15.1982 24.9481 15.3931 24.5035 15.5575C23.9157 15.7754 23.4951 16.0334 23.054 16.4527C22.6358 16.8394 22.314 17.3101 22.1121 17.8303C21.9391 18.2529 21.734 18.8867 21.6779 20.0552C21.6171 21.3184 21.6045 21.6974 21.6045 24.8959C21.6045 28.0943 21.6171 28.4733 21.6779 29.7365C21.734 30.905 21.9391 31.5388 22.1121 31.9614C22.3138 32.4808 22.6358 32.9524 23.054 33.339C23.4608 33.7365 23.9569 34.0425 24.5035 34.2342C24.9481 34.3986 25.6149 34.5935 26.8444 34.6469C28.1736 34.7046 28.5712 34.7166 31.9376 34.7166C35.3041 34.7166 35.7017 34.7046 37.0308 34.6469C38.2603 34.5935 38.9272 34.3986 39.3718 34.2342C39.9596 34.0164 40.3801 33.7583 40.8212 33.339C41.2395 32.9524 41.5614 32.4808 41.7631 31.9614C41.9361 31.5388 42.1412 30.905 42.1974 29.7365C42.2581 28.4733 42.2707 28.0943 42.2707 24.8959C42.2707 21.6974 42.2581 21.3184 42.1974 20.0552C42.1412 18.8867 41.9361 18.2529 41.7631 17.8303C41.5339 17.2717 41.2624 16.872 40.8212 16.4527C40.4144 16.0553 39.9191 15.7494 39.3718 15.5575C38.9272 15.3931 38.2603 15.1982 37.0308 15.1448ZM30.3277 28.5887C31.2268 28.9444 32.228 28.9924 33.1601 28.7245C34.0923 28.4566 34.8977 27.8895 35.4388 27.1199C35.9799 26.3503 36.2231 25.4261 36.1268 24.505C36.0306 23.584 35.6008 22.7232 34.9111 22.0699C34.4713 21.6522 33.9396 21.3324 33.3542 21.1335C32.7689 20.9345 32.1444 20.8614 31.5257 20.9194C30.907 20.9774 30.3096 21.1651 29.7764 21.4689C29.2432 21.7726 28.7874 22.185 28.442 22.6763C28.0966 23.1675 27.8701 23.7255 27.7789 24.3099C27.6876 24.8944 27.7337 25.4908 27.9141 26.0562C28.0944 26.6217 28.4044 27.1421 28.8218 27.58C29.2391 28.0179 29.7535 28.3624 30.3277 28.5887ZM27.3566 20.542C27.9582 19.9702 28.6724 19.5167 29.4584 19.2072C30.2444 18.8978 31.0868 18.7385 31.9376 18.7385C32.7884 18.7385 33.6308 18.8978 34.4169 19.2072C35.2029 19.5167 35.9171 19.9702 36.5187 20.542C37.1202 21.1137 37.5974 21.7925 37.923 22.5395C38.2486 23.2866 38.4162 24.0873 38.4162 24.8959C38.4162 25.7044 38.2486 26.5051 37.923 27.2522C37.5974 27.9992 37.1202 28.678 36.5187 29.2497C35.3037 30.4045 33.6558 31.0532 31.9376 31.0532C30.2194 31.0532 28.5716 30.4045 27.3566 29.2497C26.1416 28.095 25.4591 26.5289 25.4591 24.8959C25.4591 23.2628 26.1416 21.6967 27.3566 20.542ZM39.853 19.6555C40.0021 19.5219 40.1214 19.3611 40.204 19.1829C40.2865 19.0046 40.3306 18.8124 40.3336 18.6176C40.3366 18.4228 40.2984 18.2295 40.2214 18.049C40.1443 17.8685 40.03 17.7046 39.8851 17.5668C39.7401 17.4291 39.5676 17.3204 39.3777 17.2472C39.1878 17.174 38.9844 17.1377 38.7795 17.1405C38.5745 17.1434 38.3723 17.1852 38.1847 17.2637C37.9971 17.3422 37.828 17.4556 37.6874 17.5973C37.4139 17.8728 37.2642 18.2388 37.27 18.6176C37.2758 18.9964 37.4367 19.3581 37.7185 19.6259C38.0003 19.8938 38.3809 20.0467 38.7795 20.0522C39.178 20.0578 39.5631 19.9155 39.853 19.6555Z" fill="#F4772A"/>
</g>
<defs>
<filter id="filter0_dd_21_88" x="0.679918" y="0" width="60.6402" height="61.9702" filterUnits="userSpaceOnUse" color-interpolation-filters="sRGB">
<feFlood flood-opacity="0" result="BackgroundImageFix"/>
<feColorMatrix in="SourceAlpha" type="matrix" values="0 0 0 0 0 0 0 0 0 0 0 0 0 0 0 0 0 0 127 0" result="hardAlpha"/>
<feOffset dy="2.76726"/>
<feGaussianBlur stdDeviation="1.1069"/>
<feColorMatrix type="matrix" values="0 0 0 0 0 0 0 0 0 0 0 0 0 0 0 0 0 0 0.0196802 0"/>
<feBlend mode="normal" in2="BackgroundImageFix" result="effect1_dropShadow_21_88"/>
<feColorMatrix in="SourceAlpha" type="matrix" values="0 0 0 0 0 0 0 0 0 0 0 0 0 0 0 0 0 0 127 0" result="hardAlpha"/>
<feOffset dy="6.6501"/>
<feGaussianBlur stdDeviation="2.66004"/>
<feColorMatrix type="matrix" values="0 0 0 0 0 0 0 0 0 0 0 0 0 0 0 0 0 0 0.0282725 0"/>
<feBlend mode="normal" in2="effect1_dropShadow_21_88" result="effect2_dropShadow_21_88"/>
<feBlend mode="normal" in="SourceGraphic" in2="effect2_dropShadow_21_88" result="shape"/>
</filter>
<filter id="filter1_i_21_88" x="19.3335" y="12.9167" width="25.2083" height="27.9583" filterUnits="userSpaceOnUse" color-interpolation-filters="sRGB">
<feFlood flood-opacity="0" result="BackgroundImageFix"/>
<feBlend mode="normal" in="SourceGraphic" in2="BackgroundImageFix" result="shape"/>
<feColorMatrix in="SourceAlpha" type="matrix" values="0 0 0 0 0 0 0 0 0 0 0 0 0 0 0 0 0 0 127 0" result="hardAlpha"/>
<feOffset dy="4"/>
<feGaussianBlur stdDeviation="2"/>
<feComposite in2="hardAlpha" operator="arithmetic" k2="-1" k3="1"/>
<feColorMatrix type="matrix" values="0 0 0 0 0 0 0 0 0 0 0 0 0 0 0 0 0 0 0.25 0"/>
<feBlend mode="normal" in2="shape" result="effect1_innerShadow_21_88"/>
</filter>
</defs>
</svg>
