<svg id="visual" viewBox="0 0 900 600" width="900" height="600" xmlns="http://www.w3.org/2000/svg" xmlns:xlink="http://www.w3.org/1999/xlink" version="1.1"><g stroke-width="1" stroke-linejoin="bevel"><path d="M433.5 297L421.5 292L416.5 328Z" fill="#414141" stroke="#414141"></path><path d="M416.5 328L467.4 318L433.5 297Z" fill="#a0b19a" stroke="#a0b19a"></path><path d="M415.5 337L467.4 318L416.5 328Z" fill="#a0b19a" stroke="#a0b19a"></path><path d="M323.6 281L415.5 337L416.5 328Z" fill="#5f645d" stroke="#5f645d"></path><path d="M323.6 281L396.5 380L415.5 337Z" fill="#7f8a7b" stroke="#7f8a7b"></path><path d="M415.5 337L490.5 344L467.4 318Z" fill="#acbfa4" stroke="#acbfa4"></path><path d="M454.5 399L490.5 344L415.5 337Z" fill="#95a48f" stroke="#95a48f"></path><path d="M459.5 222L401.5 223L421.5 292Z" fill="#747d71" stroke="#747d71"></path><path d="M421.5 292L323.6 281L416.5 328Z" fill="#acbfa4" stroke="#acbfa4"></path><path d="M459.5 222L421.5 292L433.5 297Z" fill="#8a9785" stroke="#8a9785"></path><path d="M459.5 222L433.5 297L467.4 318Z" fill="#8a9785" stroke="#8a9785"></path><path d="M396.5 380L454.5 399L415.5 337Z" fill="#747d71" stroke="#747d71"></path><path d="M498.5 184L459.5 222L539.5 216Z" fill="#747d71" stroke="#747d71"></path><path d="M401.5 223L336.7 260L421.5 292Z" fill="#747d71" stroke="#747d71"></path><path d="M336.7 260L323.6 281L421.5 292Z" fill="#555854" stroke="#555854"></path><path d="M459.5 222L412.6 209L401.5 223Z" fill="#a0b19a" stroke="#a0b19a"></path><path d="M401.5 223L368.6 220L336.7 260Z" fill="#555854" stroke="#555854"></path><path d="M412.6 209L368.6 220L401.5 223Z" fill="#697067" stroke="#697067"></path><path d="M368.6 220L344.7 229L336.7 260Z" fill="#8a9785" stroke="#8a9785"></path><path d="M336.7 260L326.6 231L323.6 281Z" fill="#4b4c4a" stroke="#4b4c4a"></path><path d="M396.5 380L439.6 425L454.5 399Z" fill="#8a9785" stroke="#8a9785"></path><path d="M454.5 399L537.4 363L490.5 344Z" fill="#4b4c4a" stroke="#4b4c4a"></path><path d="M330.7 214L326.6 231L344.7 229Z" fill="#697067" stroke="#697067"></path><path d="M344.7 229L326.6 231L336.7 260Z" fill="#acbfa4" stroke="#acbfa4"></path><path d="M541.4 366L537.4 363L490.4 442Z" fill="#a0b19a" stroke="#a0b19a"></path><path d="M576.4 280L539.5 216L467.4 318Z" fill="#7f8a7b" stroke="#7f8a7b"></path><path d="M498.5 184L440.5 183L459.5 222Z" fill="#5f645d" stroke="#5f645d"></path><path d="M459.5 222L440.5 183L412.6 209Z" fill="#697067" stroke="#697067"></path><path d="M353.6 184L348.7 188L368.6 220Z" fill="#7f8a7b" stroke="#7f8a7b"></path><path d="M368.6 220L330.7 214L344.7 229Z" fill="#acbfa4" stroke="#acbfa4"></path><path d="M348.7 188L330.7 214L368.6 220Z" fill="#4b4c4a" stroke="#4b4c4a"></path><path d="M330.7 457L398.5 441L396.5 380Z" fill="#414141" stroke="#414141"></path><path d="M396.5 380L398.5 441L439.6 425Z" fill="#414141" stroke="#414141"></path><path d="M490.4 442L537.4 363L454.5 399Z" fill="#555854" stroke="#555854"></path><path d="M539.5 216L459.5 222L467.4 318Z" fill="#414141" stroke="#414141"></path><path d="M353.6 184L368.6 220L412.6 209Z" fill="#a0b19a" stroke="#a0b19a"></path><path d="M227.8 359L295.6 378L219.8 310Z" fill="#414141" stroke="#414141"></path><path d="M323.6 281L295.6 378L396.5 380Z" fill="#555854" stroke="#555854"></path><path d="M353.6 154L353.6 184L412.6 209Z" fill="#acbfa4" stroke="#acbfa4"></path><path d="M398.5 441L445.5 455L439.6 425Z" fill="#555854" stroke="#555854"></path><path d="M439.6 425L490.4 442L454.5 399Z" fill="#747d71" stroke="#747d71"></path><path d="M467.4 318L490.5 344L576.4 280Z" fill="#5f645d" stroke="#5f645d"></path><path d="M445.5 455L490.4 442L439.6 425Z" fill="#697067" stroke="#697067"></path><path d="M576.4 280L490.5 344L537.4 363Z" fill="#747d71" stroke="#747d71"></path><path d="M353.6 154L327.6 191L348.7 188Z" fill="#555854" stroke="#555854"></path><path d="M348.7 188L327.6 191L330.7 214Z" fill="#697067" stroke="#697067"></path><path d="M330.7 214L294.6 173L326.6 231Z" fill="#414141" stroke="#414141"></path><path d="M243.8 238L237.6 260L323.6 281Z" fill="#5f645d" stroke="#5f645d"></path><path d="M586.4 360L576.4 280L537.4 363Z" fill="#697067" stroke="#697067"></path><path d="M440.5 183L353.6 154L412.6 209Z" fill="#8a9785" stroke="#8a9785"></path><path d="M353.6 184L353.6 154L348.7 188Z" fill="#95a48f" stroke="#95a48f"></path><path d="M445.4 136L353.6 154L440.5 183Z" fill="#697067" stroke="#697067"></path><path d="M295.6 378L330.7 457L396.5 380Z" fill="#a0b19a" stroke="#a0b19a"></path><path d="M398.5 441L426.6 484L445.5 455Z" fill="#555854" stroke="#555854"></path><path d="M569.3 428L586.4 360L541.4 366Z" fill="#414141" stroke="#414141"></path><path d="M541.4 366L586.4 360L537.4 363Z" fill="#7f8a7b" stroke="#7f8a7b"></path><path d="M377.5 513L426.6 484L398.5 441Z" fill="#acbfa4" stroke="#acbfa4"></path><path d="M445.5 455L509.5 473L490.4 442Z" fill="#acbfa4" stroke="#acbfa4"></path><path d="M610.4 302L587.4 260L576.4 280Z" fill="#8a9785" stroke="#8a9785"></path><path d="M576.4 280L587.4 260L539.5 216Z" fill="#95a48f" stroke="#95a48f"></path><path d="M330.7 457L338.5 465L398.5 441Z" fill="#7f8a7b" stroke="#7f8a7b"></path><path d="M448.5 120L445.4 136L498.5 184Z" fill="#acbfa4" stroke="#acbfa4"></path><path d="M498.5 184L445.4 136L440.5 183Z" fill="#7f8a7b" stroke="#7f8a7b"></path><path d="M482.4 523L509.5 473L445.5 455Z" fill="#a0b19a" stroke="#a0b19a"></path><path d="M490.4 442L569.3 428L541.4 366Z" fill="#8a9785" stroke="#8a9785"></path><path d="M261.8 442L320.6 467L330.7 457Z" fill="#555854" stroke="#555854"></path><path d="M330.7 457L320.6 467L338.5 465Z" fill="#5f645d" stroke="#5f645d"></path><path d="M338.5 465L377.5 513L398.5 441Z" fill="#4b4c4a" stroke="#4b4c4a"></path><path d="M353.6 154L294.6 173L327.6 191Z" fill="#5f645d" stroke="#5f645d"></path><path d="M327.6 191L294.6 173L330.7 214Z" fill="#95a48f" stroke="#95a48f"></path><path d="M560.4 464L569.3 428L490.4 442Z" fill="#a0b19a" stroke="#a0b19a"></path><path d="M586.4 360L610.4 302L576.4 280Z" fill="#697067" stroke="#697067"></path><path d="M618.2 336L610.4 302L586.4 360Z" fill="#95a48f" stroke="#95a48f"></path><path d="M243.8 238L323.6 281L326.6 231Z" fill="#95a48f" stroke="#95a48f"></path><path d="M295.6 378L261.8 442L330.7 457Z" fill="#4b4c4a" stroke="#4b4c4a"></path><path d="M294.6 173L243.8 238L326.6 231Z" fill="#697067" stroke="#697067"></path><path d="M547.4 136L448.5 120L498.5 184Z" fill="#5f645d" stroke="#5f645d"></path><path d="M445.4 136L374.5 109L353.6 154Z" fill="#5f645d" stroke="#5f645d"></path><path d="M353.6 154L288.7 164L294.6 173Z" fill="#5f645d" stroke="#5f645d"></path><path d="M547.4 136L498.5 184L539.5 216Z" fill="#8a9785" stroke="#8a9785"></path><path d="M320.6 467L338.6 488L338.5 465Z" fill="#555854" stroke="#555854"></path><path d="M354.6 101L288.7 164L353.6 154Z" fill="#4b4c4a" stroke="#4b4c4a"></path><path d="M294.6 173L244.6 175L243.8 238Z" fill="#95a48f" stroke="#95a48f"></path><path d="M674.2 388L618.2 336L586.4 360Z" fill="#8a9785" stroke="#8a9785"></path><path d="M219.8 310L295.6 378L323.6 281Z" fill="#95a48f" stroke="#95a48f"></path><path d="M312.6 523L336.6 533L338.6 488Z" fill="#4b4c4a" stroke="#4b4c4a"></path><path d="M188.8 348L219.8 310L180.8 310Z" fill="#95a48f" stroke="#95a48f"></path><path d="M237.6 260L219.8 310L323.6 281Z" fill="#95a48f" stroke="#95a48f"></path><path d="M628.4 161L581.4 188L648.4 181Z" fill="#697067" stroke="#697067"></path><path d="M587.4 260L581.4 188L539.5 216Z" fill="#555854" stroke="#555854"></path><path d="M448.5 120L374.5 109L445.4 136Z" fill="#747d71" stroke="#747d71"></path><path d="M221.8 419L261.8 442L295.6 378Z" fill="#8a9785" stroke="#8a9785"></path><path d="M336.6 533L377.5 513L338.6 488Z" fill="#555854" stroke="#555854"></path><path d="M338.6 488L377.5 513L338.5 465Z" fill="#747d71" stroke="#747d71"></path><path d="M426.6 484L482.4 523L445.5 455Z" fill="#414141" stroke="#414141"></path><path d="M604.2 524L560.4 464L536.4 577Z" fill="#acbfa4" stroke="#acbfa4"></path><path d="M509.5 473L560.4 464L490.4 442Z" fill="#414141" stroke="#414141"></path><path d="M674.2 388L645.3 307L618.2 336Z" fill="#5f645d" stroke="#5f645d"></path><path d="M581.4 188L547.4 136L539.5 216Z" fill="#555854" stroke="#555854"></path><path d="M385.5 87L354.6 101L374.5 109Z" fill="#acbfa4" stroke="#acbfa4"></path><path d="M374.5 109L354.6 101L353.6 154Z" fill="#5f645d" stroke="#5f645d"></path><path d="M385.5 87L374.5 109L448.5 120Z" fill="#8a9785" stroke="#8a9785"></path><path d="M406.6 570L482.4 523L426.6 484Z" fill="#a0b19a" stroke="#a0b19a"></path><path d="M288.7 164L244.6 175L294.6 173Z" fill="#7f8a7b" stroke="#7f8a7b"></path><path d="M187.8 193L180.8 310L237.6 260Z" fill="#4b4c4a" stroke="#4b4c4a"></path><path d="M274.8 91L244.6 175L288.7 164Z" fill="#555854" stroke="#555854"></path><path d="M618.2 336L645.3 307L610.4 302Z" fill="#4b4c4a" stroke="#4b4c4a"></path><path d="M610.4 302L677.2 245L587.4 260Z" fill="#a0b19a" stroke="#a0b19a"></path><path d="M634.4 453L586.4 360L569.3 428Z" fill="#555854" stroke="#555854"></path><path d="M422.5 54L385.5 87L448.5 120Z" fill="#747d71" stroke="#747d71"></path><path d="M227.8 359L221.8 419L295.6 378Z" fill="#414141" stroke="#414141"></path><path d="M261.8 442L312.6 523L320.6 467Z" fill="#a0b19a" stroke="#a0b19a"></path><path d="M193.7 403L221.8 419L227.8 359Z" fill="#7f8a7b" stroke="#7f8a7b"></path><path d="M221.8 419L241.7 451L261.8 442Z" fill="#4b4c4a" stroke="#4b4c4a"></path><path d="M180.8 310L219.8 310L237.6 260Z" fill="#5f645d" stroke="#5f645d"></path><path d="M219.8 310L188.8 348L227.8 359Z" fill="#747d71" stroke="#747d71"></path><path d="M312.6 523L338.6 488L320.6 467Z" fill="#7f8a7b" stroke="#7f8a7b"></path><path d="M377.5 513L406.6 570L426.6 484Z" fill="#7f8a7b" stroke="#7f8a7b"></path><path d="M241.7 451L312.6 523L261.8 442Z" fill="#5f645d" stroke="#5f645d"></path><path d="M187.8 193L237.6 260L243.8 238Z" fill="#414141" stroke="#414141"></path><path d="M221.8 419L161.8 442L241.7 451Z" fill="#a0b19a" stroke="#a0b19a"></path><path d="M241.7 451L219.8 528L312.6 523Z" fill="#7f8a7b" stroke="#7f8a7b"></path><path d="M188.8 348L193.7 403L227.8 359Z" fill="#697067" stroke="#697067"></path><path d="M161.8 442L193.7 403L152.9 425Z" fill="#8a9785" stroke="#8a9785"></path><path d="M547.4 136L447.4 57L448.5 120Z" fill="#5f645d" stroke="#5f645d"></path><path d="M359.6 35L274.8 91L354.6 101Z" fill="#a0b19a" stroke="#a0b19a"></path><path d="M648.4 181L581.4 188L663.3 201Z" fill="#4b4c4a" stroke="#4b4c4a"></path><path d="M581.4 188L628.4 161L547.4 136Z" fill="#acbfa4" stroke="#acbfa4"></path><path d="M547.4 136L500.4 0L447.4 57Z" fill="#697067" stroke="#697067"></path><path d="M447.4 57L422.5 54L448.5 120Z" fill="#4b4c4a" stroke="#4b4c4a"></path><path d="M188.8 175L187.8 193L244.6 175Z" fill="#95a48f" stroke="#95a48f"></path><path d="M634.2 479L634.4 453L560.4 464Z" fill="#5f645d" stroke="#5f645d"></path><path d="M560.4 464L634.4 453L569.3 428Z" fill="#5f645d" stroke="#5f645d"></path><path d="M359.5 600L406.6 570L336.6 533Z" fill="#555854" stroke="#555854"></path><path d="M336.6 533L406.6 570L377.5 513Z" fill="#555854" stroke="#555854"></path><path d="M604.2 524L634.2 479L560.4 464Z" fill="#4b4c4a" stroke="#4b4c4a"></path><path d="M274.8 91L288.7 164L354.6 101Z" fill="#5f645d" stroke="#5f645d"></path><path d="M244.6 175L187.8 193L243.8 238Z" fill="#555854" stroke="#555854"></path><path d="M663.3 201L581.4 188L587.4 260Z" fill="#acbfa4" stroke="#acbfa4"></path><path d="M359.6 35L354.6 101L385.5 87Z" fill="#7f8a7b" stroke="#7f8a7b"></path><path d="M716.3 234L677.2 245L761.1 305Z" fill="#8a9785" stroke="#8a9785"></path><path d="M645.3 307L677.2 245L610.4 302Z" fill="#747d71" stroke="#747d71"></path><path d="M634.4 453L674.2 388L586.4 360Z" fill="#4b4c4a" stroke="#4b4c4a"></path><path d="M675.2 227L663.3 201L587.4 260Z" fill="#7f8a7b" stroke="#7f8a7b"></path><path d="M677.2 245L675.2 227L587.4 260Z" fill="#8a9785" stroke="#8a9785"></path><path d="M199.8 84L188.8 175L244.6 175Z" fill="#acbfa4" stroke="#acbfa4"></path><path d="M187.8 193L139.8 307L180.8 310Z" fill="#8a9785" stroke="#8a9785"></path><path d="M560.4 464L509.5 473L536.4 577Z" fill="#697067" stroke="#697067"></path><path d="M634.4 453L694.3 458L674.2 388Z" fill="#697067" stroke="#697067"></path><path d="M692.2 204L681.3 228L716.3 234Z" fill="#414141" stroke="#414141"></path><path d="M677.2 245L681.3 228L675.2 227Z" fill="#4b4c4a" stroke="#4b4c4a"></path><path d="M675.2 227L692.2 204L663.3 201Z" fill="#95a48f" stroke="#95a48f"></path><path d="M406.6 570L465.5 583L482.4 523Z" fill="#747d71" stroke="#747d71"></path><path d="M674.2 168L648.4 181L663.3 201Z" fill="#747d71" stroke="#747d71"></path><path d="M674.2 168L628.4 161L648.4 181Z" fill="#8a9785" stroke="#8a9785"></path><path d="M632.3 78L597.4 93L628.4 161Z" fill="#4b4c4a" stroke="#4b4c4a"></path><path d="M628.4 161L597.4 93L547.4 136Z" fill="#95a48f" stroke="#95a48f"></path><path d="M103.9 285L139.8 307L122.8 196Z" fill="#95a48f" stroke="#95a48f"></path><path d="M180.8 310L139.8 307L188.8 348Z" fill="#acbfa4" stroke="#acbfa4"></path><path d="M536.4 577L509.5 473L482.4 523Z" fill="#8a9785" stroke="#8a9785"></path><path d="M369.5 0L359.6 35L422.5 54Z" fill="#697067" stroke="#697067"></path><path d="M422.5 54L359.6 35L385.5 87Z" fill="#697067" stroke="#697067"></path><path d="M369.5 0L422.5 54L500.4 0Z" fill="#555854" stroke="#555854"></path><path d="M692.2 204L674.2 168L663.3 201Z" fill="#95a48f" stroke="#95a48f"></path><path d="M465.5 583L536.4 577L482.4 523Z" fill="#95a48f" stroke="#95a48f"></path><path d="M152.9 425L193.7 403L142.8 406Z" fill="#5f645d" stroke="#5f645d"></path><path d="M193.7 403L161.8 442L221.8 419Z" fill="#95a48f" stroke="#95a48f"></path><path d="M681.3 228L692.2 204L675.2 227Z" fill="#4b4c4a" stroke="#4b4c4a"></path><path d="M716.3 234L681.3 228L677.2 245Z" fill="#747d71" stroke="#747d71"></path><path d="M142.8 406L193.7 403L188.8 348Z" fill="#5f645d" stroke="#5f645d"></path><path d="M632.3 78L596.4 75L597.4 93Z" fill="#4b4c4a" stroke="#4b4c4a"></path><path d="M597.4 93L596.4 75L547.4 136Z" fill="#95a48f" stroke="#95a48f"></path><path d="M99.9 335L142.8 406L188.8 348Z" fill="#4b4c4a" stroke="#4b4c4a"></path><path d="M217.8 600L219.8 528L181.7 583Z" fill="#5f645d" stroke="#5f645d"></path><path d="M342.6 600L359.5 600L336.6 533Z" fill="#697067" stroke="#697067"></path><path d="M406.6 570L359.5 600L465.5 583Z" fill="#7f8a7b" stroke="#7f8a7b"></path><path d="M465.5 583L509.4 600L536.4 577Z" fill="#5f645d" stroke="#5f645d"></path><path d="M342.6 600L336.6 533L330.6 600Z" fill="#747d71" stroke="#747d71"></path><path d="M161.8 442L219.8 528L241.7 451Z" fill="#5f645d" stroke="#5f645d"></path><path d="M330.6 600L336.6 533L312.6 523Z" fill="#acbfa4" stroke="#acbfa4"></path><path d="M560.5 600L571.4 573L536.4 577Z" fill="#555854" stroke="#555854"></path><path d="M536.4 577L571.4 573L604.2 524Z" fill="#a0b19a" stroke="#a0b19a"></path><path d="M359.5 600L509.4 600L465.5 583Z" fill="#697067" stroke="#697067"></path><path d="M280.7 600L330.6 600L312.6 523Z" fill="#7f8a7b" stroke="#7f8a7b"></path><path d="M761.1 305L677.2 245L645.3 307Z" fill="#414141" stroke="#414141"></path><path d="M692.2 204L724.1 132L674.2 168Z" fill="#95a48f" stroke="#95a48f"></path><path d="M604.2 524L666.3 493L634.2 479Z" fill="#95a48f" stroke="#95a48f"></path><path d="M634.2 479L666.3 493L634.4 453Z" fill="#7f8a7b" stroke="#7f8a7b"></path><path d="M674.2 388L755.2 360L645.3 307Z" fill="#414141" stroke="#414141"></path><path d="M649.3 600L666.3 493L604.2 524Z" fill="#697067" stroke="#697067"></path><path d="M666.3 493L694.3 458L634.4 453Z" fill="#7f8a7b" stroke="#7f8a7b"></path><path d="M674.2 168L632.3 78L628.4 161Z" fill="#5f645d" stroke="#5f645d"></path><path d="M500.4 0L422.5 54L447.4 57Z" fill="#acbfa4" stroke="#acbfa4"></path><path d="M724.1 132L632.3 78L674.2 168Z" fill="#747d71" stroke="#747d71"></path><path d="M500.4 0L547.4 136L542.5 0Z" fill="#555854" stroke="#555854"></path><path d="M359.6 35L297.6 0L274.8 91Z" fill="#8a9785" stroke="#8a9785"></path><path d="M694.3 458L712.3 432L674.2 388Z" fill="#555854" stroke="#555854"></path><path d="M201.8 67L199.8 84L274.8 91Z" fill="#4b4c4a" stroke="#4b4c4a"></path><path d="M274.8 91L199.8 84L244.6 175Z" fill="#747d71" stroke="#747d71"></path><path d="M122.8 196L139.8 307L187.8 193Z" fill="#95a48f" stroke="#95a48f"></path><path d="M122.8 196L187.8 193L188.8 175Z" fill="#4b4c4a" stroke="#4b4c4a"></path><path d="M139.8 307L99.9 335L188.8 348Z" fill="#697067" stroke="#697067"></path><path d="M144.9 145L122.8 196L188.8 175Z" fill="#4b4c4a" stroke="#4b4c4a"></path><path d="M542.5 0L547.4 136L596.4 75Z" fill="#4b4c4a" stroke="#4b4c4a"></path><path d="M509.4 600L560.5 600L536.4 577Z" fill="#414141" stroke="#414141"></path><path d="M571.4 573L645.2 600L604.2 524Z" fill="#4b4c4a" stroke="#4b4c4a"></path><path d="M199.8 84L144.9 145L188.8 175Z" fill="#555854" stroke="#555854"></path><path d="M272.6 597L280.7 600L312.6 523Z" fill="#4b4c4a" stroke="#4b4c4a"></path><path d="M103.9 285L99.9 335L139.8 307Z" fill="#a0b19a" stroke="#a0b19a"></path><path d="M95.8 453L161.8 442L152.9 425Z" fill="#a0b19a" stroke="#a0b19a"></path><path d="M219.8 528L272.6 597L312.6 523Z" fill="#4b4c4a" stroke="#4b4c4a"></path><path d="M369.5 0L324.6 0L359.6 35Z" fill="#414141" stroke="#414141"></path><path d="M560.5 600L571.4 600L571.4 573Z" fill="#95a48f" stroke="#95a48f"></path><path d="M206.7 0L201.8 67L274.8 91Z" fill="#697067" stroke="#697067"></path><path d="M199.8 84L136.8 121L144.9 145Z" fill="#acbfa4" stroke="#acbfa4"></path><path d="M242.8 600L272.6 597L219.8 528Z" fill="#4b4c4a" stroke="#4b4c4a"></path><path d="M242.8 600L261.7 602L272.6 597Z" fill="#414141" stroke="#414141"></path><path d="M272.6 597L261.7 602L280.7 600Z" fill="#747d71" stroke="#747d71"></path><path d="M280.7 600L261.7 602L330.6 600Z" fill="#7f8a7b" stroke="#7f8a7b"></path><path d="M330.6 600L261.7 602L342.6 600Z" fill="#5f645d" stroke="#5f645d"></path><path d="M342.6 600L226.8 604L359.5 600Z" fill="#7f8a7b" stroke="#7f8a7b"></path><path d="M359.5 600L226.8 604L509.4 600Z" fill="#acbfa4" stroke="#acbfa4"></path><path d="M509.4 600L226.8 604L560.5 600Z" fill="#555854" stroke="#555854"></path><path d="M560.5 600L226.8 604L571.4 600Z" fill="#8a9785" stroke="#8a9785"></path><path d="M602.4 8L542.5 0L596.4 75Z" fill="#5f645d" stroke="#5f645d"></path><path d="M324.6 0L297.6 0L359.6 35Z" fill="#8a9785" stroke="#8a9785"></path><path d="M123.9 123L122.9 153L144.9 145Z" fill="#5f645d" stroke="#5f645d"></path><path d="M144.9 145L122.9 153L122.8 196Z" fill="#7f8a7b" stroke="#7f8a7b"></path><path d="M122.8 196L81.9 177L103.9 285Z" fill="#555854" stroke="#555854"></path><path d="M756.2 409L755.2 360L674.2 388Z" fill="#a0b19a" stroke="#a0b19a"></path><path d="M226.8 604L242.8 600L217.8 600Z" fill="#4b4c4a" stroke="#4b4c4a"></path><path d="M242.8 600L219.8 528L217.8 600Z" fill="#7f8a7b" stroke="#7f8a7b"></path><path d="M755.2 360L761.1 305L645.3 307Z" fill="#4b4c4a" stroke="#4b4c4a"></path><path d="M716.3 234L749.2 194L692.2 204Z" fill="#697067" stroke="#697067"></path><path d="M136.8 108L136.8 121L199.8 84Z" fill="#acbfa4" stroke="#acbfa4"></path><path d="M758.2 238L750.2 217L716.3 234Z" fill="#697067" stroke="#697067"></path><path d="M369.5 0L333.6 -21L324.6 0Z" fill="#4b4c4a" stroke="#4b4c4a"></path><path d="M324.6 0L333.6 -21L297.6 0Z" fill="#7f8a7b" stroke="#7f8a7b"></path><path d="M500.4 0L333.6 -21L369.5 0Z" fill="#8a9785" stroke="#8a9785"></path><path d="M542.5 0L333.6 -21L500.4 0Z" fill="#414141" stroke="#414141"></path><path d="M694.3 458L710.3 495L712.3 432Z" fill="#95a48f" stroke="#95a48f"></path><path d="M712.3 432L756.2 409L674.2 388Z" fill="#acbfa4" stroke="#acbfa4"></path><path d="M666.3 493L710.3 495L694.3 458Z" fill="#414141" stroke="#414141"></path><path d="M709.2 553L710.3 495L666.3 493Z" fill="#5f645d" stroke="#5f645d"></path><path d="M772.1 271L758.2 238L716.3 234Z" fill="#acbfa4" stroke="#acbfa4"></path><path d="M757.1 195L749.2 194L750.2 217Z" fill="#acbfa4" stroke="#acbfa4"></path><path d="M750.2 217L749.2 194L716.3 234Z" fill="#555854" stroke="#555854"></path><path d="M761.1 305L772.1 271L716.3 234Z" fill="#5f645d" stroke="#5f645d"></path><path d="M795.1 328L769.2 299L761.1 305Z" fill="#8a9785" stroke="#8a9785"></path><path d="M201.8 67L136.8 108L199.8 84Z" fill="#555854" stroke="#555854"></path><path d="M136.8 121L123.9 123L144.9 145Z" fill="#7f8a7b" stroke="#7f8a7b"></path><path d="M104.9 66L136.8 108L201.8 67Z" fill="#5f645d" stroke="#5f645d"></path><path d="M771.1 425L756.2 409L712.3 432Z" fill="#acbfa4" stroke="#acbfa4"></path><path d="M755.2 360L777.1 356L761.1 305Z" fill="#5f645d" stroke="#5f645d"></path><path d="M136.8 108L123.9 123L136.8 121Z" fill="#414141" stroke="#414141"></path><path d="M122.9 153L81.9 177L122.8 196Z" fill="#8a9785" stroke="#8a9785"></path><path d="M749.2 194L724.1 132L692.2 204Z" fill="#5f645d" stroke="#5f645d"></path><path d="M632.3 78L602.4 8L596.4 75Z" fill="#acbfa4" stroke="#acbfa4"></path><path d="M219.8 528L145.9 548L181.7 583Z" fill="#acbfa4" stroke="#acbfa4"></path><path d="M242.8 600L226.8 604L261.7 602Z" fill="#555854" stroke="#555854"></path><path d="M261.7 602L226.8 604L342.6 600Z" fill="#555854" stroke="#555854"></path><path d="M635.4 0L602.4 8L632.3 78Z" fill="#697067" stroke="#697067"></path><path d="M769.2 299L772.1 271L761.1 305Z" fill="#555854" stroke="#555854"></path><path d="M802.2 230L757.1 195L750.2 217Z" fill="#acbfa4" stroke="#acbfa4"></path><path d="M95.8 453L152.9 425L142.8 406Z" fill="#4b4c4a" stroke="#4b4c4a"></path><path d="M99.9 335L95.8 453L142.8 406Z" fill="#414141" stroke="#414141"></path><path d="M749.2 194L737.2 123L724.1 132Z" fill="#414141" stroke="#414141"></path><path d="M802.2 230L750.2 217L758.2 238Z" fill="#a0b19a" stroke="#a0b19a"></path><path d="M602.4 8L594.3 0L542.5 0Z" fill="#7f8a7b" stroke="#7f8a7b"></path><path d="M542.5 0L594.3 0L333.6 -21Z" fill="#555854" stroke="#555854"></path><path d="M778.1 393L777.1 356L755.2 360Z" fill="#747d71" stroke="#747d71"></path><path d="M769.2 299L795.1 328L772.1 271Z" fill="#414141" stroke="#414141"></path><path d="M145.9 548L219.8 528L161.8 442Z" fill="#4b4c4a" stroke="#4b4c4a"></path><path d="M105.9 523L145.9 548L161.8 442Z" fill="#4b4c4a" stroke="#4b4c4a"></path><path d="M691.3 57L671.2 46L632.3 78Z" fill="#8a9785" stroke="#8a9785"></path><path d="M602.4 8L635.4 0L594.3 0Z" fill="#a0b19a" stroke="#a0b19a"></path><path d="M123.9 123L81.9 177L122.9 153Z" fill="#747d71" stroke="#747d71"></path><path d="M103.9 285L33.9 275L99.9 335Z" fill="#acbfa4" stroke="#acbfa4"></path><path d="M42.9 449L90.9 469L95.8 453Z" fill="#8a9785" stroke="#8a9785"></path><path d="M42.9 449L95.8 453L99.9 335Z" fill="#acbfa4" stroke="#acbfa4"></path><path d="M95.8 453L90.9 469L161.8 442Z" fill="#95a48f" stroke="#95a48f"></path><path d="M226.8 604L645.2 600L571.4 600Z" fill="#8a9785" stroke="#8a9785"></path><path d="M571.4 600L645.2 600L571.4 573Z" fill="#414141" stroke="#414141"></path><path d="M771.1 425L778.1 393L756.2 409Z" fill="#4b4c4a" stroke="#4b4c4a"></path><path d="M756.2 409L778.1 393L755.2 360Z" fill="#7f8a7b" stroke="#7f8a7b"></path><path d="M771.1 425L712.3 432L710.3 495Z" fill="#acbfa4" stroke="#acbfa4"></path><path d="M757.1 195L737.2 123L749.2 194Z" fill="#a0b19a" stroke="#a0b19a"></path><path d="M724.1 132L691.3 57L632.3 78Z" fill="#5f645d" stroke="#5f645d"></path><path d="M824.1 429L771.1 425L819.1 508Z" fill="#555854" stroke="#555854"></path><path d="M226.8 604L649.3 600L645.2 600Z" fill="#95a48f" stroke="#95a48f"></path><path d="M645.2 600L649.3 600L604.2 524Z" fill="#95a48f" stroke="#95a48f"></path><path d="M737.2 123L691.3 57L724.1 132Z" fill="#4b4c4a" stroke="#4b4c4a"></path><path d="M671.2 46L635.4 0L632.3 78Z" fill="#4b4c4a" stroke="#4b4c4a"></path><path d="M800.1 339L777.1 356L778.1 393Z" fill="#4b4c4a" stroke="#4b4c4a"></path><path d="M800.1 339L795.1 328L777.1 356Z" fill="#5f645d" stroke="#5f645d"></path><path d="M777.1 356L795.1 328L761.1 305Z" fill="#8a9785" stroke="#8a9785"></path><path d="M772.1 271L802.2 230L758.2 238Z" fill="#747d71" stroke="#747d71"></path><path d="M757.1 195L836.1 221L737.2 123Z" fill="#8a9785" stroke="#8a9785"></path><path d="M333.6 -21L244.7 -22L297.6 0Z" fill="#acbfa4" stroke="#acbfa4"></path><path d="M297.6 0L206.7 0L274.8 91Z" fill="#414141" stroke="#414141"></path><path d="M136.8 108L104.9 66L123.9 123Z" fill="#697067" stroke="#697067"></path><path d="M649.3 600L709.2 553L666.3 493Z" fill="#5f645d" stroke="#5f645d"></path><path d="M244.7 -22L206.7 0L297.6 0Z" fill="#7f8a7b" stroke="#7f8a7b"></path><path d="M123.9 123L28.9 133L81.9 177Z" fill="#7f8a7b" stroke="#7f8a7b"></path><path d="M722.1 16L635.4 0L671.2 46Z" fill="#a0b19a" stroke="#a0b19a"></path><path d="M594.3 0L635.4 0L333.6 -21Z" fill="#8a9785" stroke="#8a9785"></path><path d="M90.9 469L105.9 523L161.8 442Z" fill="#555854" stroke="#555854"></path><path d="M145.9 548L125.9 600L181.7 583Z" fill="#acbfa4" stroke="#acbfa4"></path><path d="M855.1 365L800.1 339L778.1 393Z" fill="#acbfa4" stroke="#acbfa4"></path><path d="M866.1 281L802.2 230L772.1 271Z" fill="#747d71" stroke="#747d71"></path><path d="M824.1 429L789.2 417L771.1 425Z" fill="#7f8a7b" stroke="#7f8a7b"></path><path d="M771.1 425L789.2 417L778.1 393Z" fill="#8a9785" stroke="#8a9785"></path><path d="M81.9 177L33.9 275L103.9 285Z" fill="#95a48f" stroke="#95a48f"></path><path d="M90.9 469L54.9 503L105.9 523Z" fill="#4b4c4a" stroke="#4b4c4a"></path><path d="M836.1 221L802.2 230L866.1 281Z" fill="#a0b19a" stroke="#a0b19a"></path><path d="M244.7 -22L183.9 0L206.7 0Z" fill="#acbfa4" stroke="#acbfa4"></path><path d="M206.7 0L183.9 0L201.8 67Z" fill="#8a9785" stroke="#8a9785"></path><path d="M152.8 0L104.9 66L201.8 67Z" fill="#555854" stroke="#555854"></path><path d="M0 257L9.9 285L33.9 275Z" fill="#697067" stroke="#697067"></path><path d="M0 377L42.9 449L99.9 335Z" fill="#95a48f" stroke="#95a48f"></path><path d="M244.7 -22L152.8 0L183.9 0Z" fill="#95a48f" stroke="#95a48f"></path><path d="M183.9 0L152.8 0L201.8 67Z" fill="#acbfa4" stroke="#acbfa4"></path><path d="M0 257L33.9 275L81.9 177Z" fill="#4b4c4a" stroke="#4b4c4a"></path><path d="M33.9 275L0 330L99.9 335Z" fill="#5f645d" stroke="#5f645d"></path><path d="M83.8 565L145.9 548L105.9 523Z" fill="#acbfa4" stroke="#acbfa4"></path><path d="M83.8 565L125.9 600L145.9 548Z" fill="#747d71" stroke="#747d71"></path><path d="M181.7 583L125.9 600L217.8 600Z" fill="#747d71" stroke="#747d71"></path><path d="M217.8 600L125.9 600L226.8 604Z" fill="#555854" stroke="#555854"></path><path d="M42.9 449L54.9 503L90.9 469Z" fill="#acbfa4" stroke="#acbfa4"></path><path d="M789.2 417L824.1 429L778.1 393Z" fill="#95a48f" stroke="#95a48f"></path><path d="M866.1 281L772.1 271L795.1 328Z" fill="#747d71" stroke="#747d71"></path><path d="M799.2 515L771.1 425L710.3 495Z" fill="#697067" stroke="#697067"></path><path d="M737.2 123L722.1 16L691.3 57Z" fill="#acbfa4" stroke="#acbfa4"></path><path d="M691.3 57L722.1 16L671.2 46Z" fill="#4b4c4a" stroke="#4b4c4a"></path><path d="M764.2 0L722.1 16L812.2 34Z" fill="#697067" stroke="#697067"></path><path d="M9.9 285L0 330L33.9 275Z" fill="#5f645d" stroke="#5f645d"></path><path d="M42.9 449L20.9 454L54.9 503Z" fill="#747d71" stroke="#747d71"></path><path d="M54.9 503L83.8 565L105.9 523Z" fill="#747d71" stroke="#747d71"></path><path d="M244.7 -22L133.9 0L152.8 0Z" fill="#747d71" stroke="#747d71"></path><path d="M152.8 0L133.9 0L104.9 66Z" fill="#7f8a7b" stroke="#7f8a7b"></path><path d="M0 330L0 355L99.9 335Z" fill="#7f8a7b" stroke="#7f8a7b"></path><path d="M0 166L0 257L81.9 177Z" fill="#4b4c4a" stroke="#4b4c4a"></path><path d="M9.9 285L0 257L0 330Z" fill="#697067" stroke="#697067"></path><path d="M28.9 133L123.9 123L104.9 66Z" fill="#555854" stroke="#555854"></path><path d="M866.1 281L795.1 328L800.1 339Z" fill="#5f645d" stroke="#5f645d"></path><path d="M802.2 230L836.1 221L757.1 195Z" fill="#5f645d" stroke="#5f645d"></path><path d="M783.1 563L782.2 534L709.2 553Z" fill="#7f8a7b" stroke="#7f8a7b"></path><path d="M709.2 553L782.2 534L710.3 495Z" fill="#7f8a7b" stroke="#7f8a7b"></path><path d="M0 377L20.9 454L42.9 449Z" fill="#555854" stroke="#555854"></path><path d="M54.9 503L0 600L83.8 565Z" fill="#414141" stroke="#414141"></path><path d="M0 355L0 377L99.9 335Z" fill="#697067" stroke="#697067"></path><path d="M782.2 534L799.2 515L710.3 495Z" fill="#5f645d" stroke="#5f645d"></path><path d="M55.9 58L28.9 133L104.9 66Z" fill="#414141" stroke="#414141"></path><path d="M244.7 -22L119.8 0L133.9 0Z" fill="#7f8a7b" stroke="#7f8a7b"></path><path d="M133.9 0L119.8 0L104.9 66Z" fill="#5f645d" stroke="#5f645d"></path><path d="M0 600L97.9 600L83.8 565Z" fill="#747d71" stroke="#747d71"></path><path d="M83.8 565L97.9 600L125.9 600Z" fill="#555854" stroke="#555854"></path><path d="M125.9 600L97.9 600L226.8 604Z" fill="#7f8a7b" stroke="#7f8a7b"></path><path d="M900 368L855.1 365L900 377Z" fill="#acbfa4" stroke="#acbfa4"></path><path d="M824.1 429L855.1 365L778.1 393Z" fill="#acbfa4" stroke="#acbfa4"></path><path d="M782.2 534L783.1 563L799.2 515Z" fill="#a0b19a" stroke="#a0b19a"></path><path d="M799.2 515L819.1 508L771.1 425Z" fill="#95a48f" stroke="#95a48f"></path><path d="M789.1 600L783.1 563L709.2 553Z" fill="#95a48f" stroke="#95a48f"></path><path d="M119.8 0L73.9 35L104.9 66Z" fill="#697067" stroke="#697067"></path><path d="M73.9 35L55.9 58L104.9 66Z" fill="#8a9785" stroke="#8a9785"></path><path d="M783.1 563L819.1 508L799.2 515Z" fill="#747d71" stroke="#747d71"></path><path d="M0 115L0 166L28.9 133Z" fill="#747d71" stroke="#747d71"></path><path d="M28.9 133L0 166L81.9 177Z" fill="#414141" stroke="#414141"></path><path d="M855.1 365L866.1 281L800.1 339Z" fill="#95a48f" stroke="#95a48f"></path><path d="M0 330L-14.1 434L0 355Z" fill="#414141" stroke="#414141"></path><path d="M0 355L-14.1 434L0 377Z" fill="#414141" stroke="#414141"></path><path d="M0 377L-14.1 434L20.9 454Z" fill="#414141" stroke="#414141"></path><path d="M20.9 454L0 479L54.9 503Z" fill="#7f8a7b" stroke="#7f8a7b"></path><path d="M0 257L-14.1 434L0 330Z" fill="#8a9785" stroke="#8a9785"></path><path d="M0 166L-14.1 434L0 257Z" fill="#697067" stroke="#697067"></path><path d="M-8.1 472L0 477L20.9 454Z" fill="#a0b19a" stroke="#a0b19a"></path><path d="M-8.1 472L0 479L0 477Z" fill="#4b4c4a" stroke="#4b4c4a"></path><path d="M0 477L0 479L20.9 454Z" fill="#8a9785" stroke="#8a9785"></path><path d="M-14.1 434L-8.1 472L20.9 454Z" fill="#697067" stroke="#697067"></path><path d="M0 479L0 504L54.9 503Z" fill="#8a9785" stroke="#8a9785"></path><path d="M812.2 34L722.1 16L737.2 123Z" fill="#5f645d" stroke="#5f645d"></path><path d="M722.1 16L764.2 0L635.4 0Z" fill="#5f645d" stroke="#5f645d"></path><path d="M635.4 0L888.1 -18L333.6 -21Z" fill="#a0b19a" stroke="#a0b19a"></path><path d="M812.2 34L737.2 123L852.1 46Z" fill="#555854" stroke="#555854"></path><path d="M-8.1 472L0 504L0 479Z" fill="#414141" stroke="#414141"></path><path d="M55.9 58L0 115L28.9 133Z" fill="#5f645d" stroke="#5f645d"></path><path d="M0 166L0 115L-14.1 434Z" fill="#414141" stroke="#414141"></path><path d="M1.9 64L0 115L55.9 58Z" fill="#747d71" stroke="#747d71"></path><path d="M649.3 600L789.1 600L709.2 553Z" fill="#414141" stroke="#414141"></path><path d="M783.1 563L839.1 600L819.1 508Z" fill="#414141" stroke="#414141"></path><path d="M226.8 604L789.1 600L649.3 600Z" fill="#95a48f" stroke="#95a48f"></path><path d="M900 518L856.1 489L819.1 508Z" fill="#414141" stroke="#414141"></path><path d="M819.1 508L856.1 489L824.1 429Z" fill="#a0b19a" stroke="#a0b19a"></path><path d="M900 368L900 273L866.1 281Z" fill="#697067" stroke="#697067"></path><path d="M883.1 78L737.2 123L836.1 221Z" fill="#747d71" stroke="#747d71"></path><path d="M900 368L866.1 281L855.1 365Z" fill="#7f8a7b" stroke="#7f8a7b"></path><path d="M866.1 281L900 273L836.1 221Z" fill="#555854" stroke="#555854"></path><path d="M789.1 600L805.2 600L783.1 563Z" fill="#7f8a7b" stroke="#7f8a7b"></path><path d="M226.8 604L805.2 600L789.1 600Z" fill="#555854" stroke="#555854"></path><path d="M900 377L855.1 365L900 406Z" fill="#414141" stroke="#414141"></path><path d="M900 406L855.1 365L824.1 429Z" fill="#8a9785" stroke="#8a9785"></path><path d="M812.2 34L793.2 0L764.2 0Z" fill="#acbfa4" stroke="#acbfa4"></path><path d="M764.2 0L888.1 -18L635.4 0Z" fill="#555854" stroke="#555854"></path><path d="M0 57L55.9 58L0 0Z" fill="#8a9785" stroke="#8a9785"></path><path d="M0 57L1.9 64L55.9 58Z" fill="#4b4c4a" stroke="#4b4c4a"></path><path d="M0 115L0 57L-14.1 434Z" fill="#5f645d" stroke="#5f645d"></path><path d="M900 448L900 406L824.1 429Z" fill="#697067" stroke="#697067"></path><path d="M900 448L824.1 429L856.1 489Z" fill="#697067" stroke="#697067"></path><path d="M900 273L900 205L836.1 221Z" fill="#555854" stroke="#555854"></path><path d="M0 0L55.9 58L73.9 35Z" fill="#414141" stroke="#414141"></path><path d="M1.9 64L0 57L0 115Z" fill="#8a9785" stroke="#8a9785"></path><path d="M900 205L900 179L836.1 221Z" fill="#acbfa4" stroke="#acbfa4"></path><path d="M812.2 34L834.1 0L793.2 0Z" fill="#95a48f" stroke="#95a48f"></path><path d="M900 491L900 448L856.1 489Z" fill="#555854" stroke="#555854"></path><path d="M883.1 78L852.1 46L737.2 123Z" fill="#acbfa4" stroke="#acbfa4"></path><path d="M226.8 604L839.1 600L805.2 600Z" fill="#acbfa4" stroke="#acbfa4"></path><path d="M805.2 600L839.1 600L783.1 563Z" fill="#a0b19a" stroke="#a0b19a"></path><path d="M900 491L918.1 420L900 448Z" fill="#a0b19a" stroke="#a0b19a"></path><path d="M900 448L918.1 420L900 406Z" fill="#acbfa4" stroke="#acbfa4"></path><path d="M900 406L918.1 420L900 377Z" fill="#747d71" stroke="#747d71"></path><path d="M900 377L918.1 420L900 368Z" fill="#acbfa4" stroke="#acbfa4"></path><path d="M900 368L918.1 420L900 273Z" fill="#4b4c4a" stroke="#4b4c4a"></path><path d="M900 273L918.1 420L900 205Z" fill="#697067" stroke="#697067"></path><path d="M900 205L918.1 420L900 179Z" fill="#414141" stroke="#414141"></path><path d="M-14.1 434L0 600L-8.1 472Z" fill="#8a9785" stroke="#8a9785"></path><path d="M-8.1 472L0 600L0 504Z" fill="#697067" stroke="#697067"></path><path d="M0 504L0 600L54.9 503Z" fill="#acbfa4" stroke="#acbfa4"></path><path d="M97.9 600L0 600L226.8 604Z" fill="#414141" stroke="#414141"></path><path d="M900 518L900 491L856.1 489Z" fill="#7f8a7b" stroke="#7f8a7b"></path><path d="M852.1 46L834.1 0L812.2 34Z" fill="#7f8a7b" stroke="#7f8a7b"></path><path d="M793.2 0L888.1 -18L764.2 0Z" fill="#4b4c4a" stroke="#4b4c4a"></path><path d="M900 179L883.1 78L836.1 221Z" fill="#414141" stroke="#414141"></path><path d="M852.1 46L856.1 0L834.1 0Z" fill="#a0b19a" stroke="#a0b19a"></path><path d="M839.1 600L900 518L819.1 508Z" fill="#4b4c4a" stroke="#4b4c4a"></path><path d="M900 491L900 518L918.1 420Z" fill="#414141" stroke="#414141"></path><path d="M0 -13L0 0L73.9 35Z" fill="#747d71" stroke="#747d71"></path><path d="M0 57L0 0L-14.1 434Z" fill="#5f645d" stroke="#5f645d"></path><path d="M0 -13L73.9 35L119.8 0Z" fill="#4b4c4a" stroke="#4b4c4a"></path><path d="M900 179L900 92L883.1 78Z" fill="#7f8a7b" stroke="#7f8a7b"></path><path d="M883.1 78L893.1 61L852.1 46Z" fill="#414141" stroke="#414141"></path><path d="M918.1 420L900 92L900 179Z" fill="#697067" stroke="#697067"></path><path d="M918.1 420L900 90L900 92Z" fill="#747d71" stroke="#747d71"></path><path d="M900 92L900 90L883.1 78Z" fill="#697067" stroke="#697067"></path><path d="M244.7 -22L0 -13L119.8 0Z" fill="#7f8a7b" stroke="#7f8a7b"></path><path d="M0 0L0 -13L-14.1 434Z" fill="#747d71" stroke="#747d71"></path><path d="M900 90L893.1 61L883.1 78Z" fill="#414141" stroke="#414141"></path><path d="M900 0L856.1 0L852.1 46Z" fill="#697067" stroke="#697067"></path><path d="M834.1 0L888.1 -18L793.2 0Z" fill="#95a48f" stroke="#95a48f"></path><path d="M226.8 604L900 600L839.1 600Z" fill="#7f8a7b" stroke="#7f8a7b"></path><path d="M839.1 600L900 600L900 518Z" fill="#7f8a7b" stroke="#7f8a7b"></path><path d="M900 518L900 600L918.1 420Z" fill="#acbfa4" stroke="#acbfa4"></path><path d="M900 90L900 0L893.1 61Z" fill="#acbfa4" stroke="#acbfa4"></path><path d="M893.1 61L900 0L852.1 46Z" fill="#414141" stroke="#414141"></path><path d="M856.1 0L888.1 -18L834.1 0Z" fill="#555854" stroke="#555854"></path><path d="M918.1 420L900 0L900 90Z" fill="#4b4c4a" stroke="#4b4c4a"></path><path d="M900 0L888.1 -18L856.1 0Z" fill="#a0b19a" stroke="#a0b19a"></path><path d="M333.6 -21L888.1 -18L244.7 -22Z" fill="#95a48f" stroke="#95a48f"></path></g></svg>