<svg width="35" height="35" viewBox="0 0 35 35" fill="none" xmlns="http://www.w3.org/2000/svg">
<path d="M2.1875 8.75C2.1875 7.54188 3.16688 6.5625 4.375 6.5625H8.75C9.95812 6.5625 10.9375 7.54188 10.9375 8.75V13.125C10.9375 14.3331 9.95812 15.3125 8.75 15.3125H4.375C3.16688 15.3125 2.1875 14.3331 2.1875 13.125V8.75Z" fill="#F4772A"/>
<path d="M13.125 8.75C13.125 7.54188 14.1044 6.5625 15.3125 6.5625H19.6875C20.8956 6.5625 21.875 7.54188 21.875 8.75V13.125C21.875 14.3331 20.8956 15.3125 19.6875 15.3125H15.3125C14.1044 15.3125 13.125 14.3331 13.125 13.125V8.75Z" fill="#F4772A"/>
<path d="M24.0625 8.75C24.0625 7.54188 25.0419 6.5625 26.25 6.5625H30.625C31.8331 6.5625 32.8125 7.54188 32.8125 8.75V13.125C32.8125 14.3331 31.8331 15.3125 30.625 15.3125H26.25C25.0419 15.3125 24.0625 14.3331 24.0625 13.125V8.75Z" fill="#F4772A"/>
<path d="M2.1875 19.6875C2.1875 18.4794 3.16688 17.5 4.375 17.5H8.75C9.95812 17.5 10.9375 18.4794 10.9375 19.6875V24.0625C10.9375 25.2706 9.95812 26.25 8.75 26.25H4.375C3.16688 26.25 2.1875 25.2706 2.1875 24.0625V19.6875Z" fill="#F4772A"/>
<path d="M13.125 19.6875C13.125 18.4794 14.1044 17.5 15.3125 17.5H19.6875C20.8956 17.5 21.875 18.4794 21.875 19.6875V24.0625C21.875 25.2706 20.8956 26.25 19.6875 26.25H15.3125C14.1044 26.25 13.125 25.2706 13.125 24.0625V19.6875Z" fill="#F4772A"/>
<path d="M24.0625 19.6875C24.0625 18.4794 25.0419 17.5 26.25 17.5H30.625C31.8331 17.5 32.8125 18.4794 32.8125 19.6875V24.0625C32.8125 25.2706 31.8331 26.25 30.625 26.25H26.25C25.0419 26.25 24.0625 25.2706 24.0625 24.0625V19.6875Z" fill="#F4772A"/>
</svg>
