<svg width="346" height="333" viewBox="0 0 346 333" fill="none" xmlns="http://www.w3.org/2000/svg">
<path d="M42.0582 272.876C45.4996 276.706 49.1302 280.38 52.9378 283.885C65.772 295.869 81.0769 305.943 97.4956 313.562C103.545 316.25 109.125 319.034 115.663 321.431C117.296 322.026 118.965 322.664 120.719 323.238C122.488 323.77 124.322 324.302 126.24 324.828C128.146 325.393 130.179 325.795 132.304 326.212C134.432 326.618 136.641 327.081 139.013 327.311C127.244 324.958 115.773 321.421 104.794 316.762C93.747 312.034 83.2499 306.225 73.4737 299.429C53.8937 285.82 37.1465 268.348 24.9137 248.374C24.4088 247.777 23.6421 246.639 22.7233 245.19L21.2457 242.816L19.7551 240.084C18.7638 238.189 17.6222 236.266 16.7479 234.403C15.964 232.773 15.1433 231.16 14.2865 229.563C18.0882 238.547 22.4764 246.405 27.3899 253.878C29.6532 257.305 32.0488 260.652 34.5718 263.911C34.2154 263.455 33.8442 263.011 33.4896 262.553C36.1933 266.087 39.0418 269.518 42.0285 272.84L42.0582 272.876ZM33.4859 262.552L33.2539 262.252L33.4859 262.552ZM2.47879 186.758L1.58221 179.933C2.05742 184.099 2.60873 188.753 3.61668 193.413L3.00969 190.104C2.78564 188.996 2.60853 187.88 2.47879 186.758ZM159.291 326.829C171.639 328.014 184.588 327.66 197.272 325.756C209.963 323.86 222.376 320.496 233.917 316.16C212.662 324.09 190.105 327.618 168.038 327.028C165.084 326.984 162.174 327.028 159.291 326.829Z" fill="url(#paint0_linear_124_17)"/>
<path d="M86.1797 302.863L85.699 302.572C85.8605 302.669 86.0183 302.768 86.1797 302.863ZM104.095 312.227C114.269 316.719 124.926 320.153 135.879 322.47C117.896 318.578 100.972 311.711 86.1797 302.863C91.8599 306.292 97.8315 309.466 104.095 312.227ZM328.564 188.611C328.746 185.828 329.113 182.908 329.206 181.519C330.309 172.588 330.635 164.962 330.589 157.311C330.385 155.932 329.8 153.349 329.568 150.411C329.284 147.466 328.866 144.583 328.514 141.739C327.977 138.919 327.515 136.128 326.929 133.391C331.152 153.851 331.081 174.389 327.196 193.767C327.623 192.042 328.079 190.323 328.564 188.611Z" fill="url(#paint1_linear_124_17)"/>
<path d="M1.64716 147.026C3.22127 134.874 6.57184 123.028 9.75905 115.137L8.46894 120.913C9.26528 119.221 10.5517 115.288 12.3059 111.126L13.5718 107.953L14.9696 104.876C15.8977 102.884 16.6774 100.996 17.4997 99.5485C16.9372 100.906 16.3952 102.37 15.7418 103.839C15.1014 105.313 14.383 106.81 13.6981 108.316L16.5084 102.312C13.6728 109.051 11.2318 115.935 9.1966 122.93C7.09345 130.594 5.43023 138.65 4.53551 145.881C4.27563 147.685 4.18468 149.446 4.01576 151.126C3.89139 152.806 3.67606 154.409 3.65935 155.923C3.58139 158.951 3.47373 161.601 3.52756 163.722C3.72247 167.965 3.99162 170.08 4.37958 168.898C5.14251 166.55 5.12766 154.478 7.78955 139.368C9.21331 131.838 11.2571 123.578 14.0303 115.485C16.7832 107.386 20.3918 99.5327 24.1284 92.6042L23.0295 94.8797L22.0179 97.2238L19.9463 101.963L18.0454 106.859L17.0783 109.328C16.7943 110.167 16.5066 111.008 16.2226 111.854C13.7723 118.559 11.9402 125.619 10.3438 132.736L9.30612 138.111C8.92559 139.897 8.76409 141.714 8.48194 143.513C7.89164 147.107 7.67632 150.728 7.34776 154.307C6.97836 161.482 6.90411 168.569 7.58907 175.346C7.56123 173.736 7.53339 172.306 7.55752 170.922L7.77099 166.774C7.86009 165.349 7.84338 163.838 7.98446 162.107C8.1144 160.376 8.2332 158.424 8.33715 156.115C9.06295 144.478 11.2552 132.956 14.6633 121.806C17.9118 110.609 21.7431 100.748 27.4511 91.8135L28.938 89.1259C29.9441 87.3225 30.7813 85.5437 31.8449 83.7297C33.0571 81.7396 34.2172 80.2496 35.1565 78.8847C36.1236 77.5339 36.9441 76.3469 37.8834 75.1951L44.7182 66.2448C44.8574 66.229 44.6773 66.5707 44.3469 67.0779C45.4738 65.5543 46.6878 64.0903 47.9833 62.6926C49.3848 61.1515 50.7455 59.5172 51.8982 58.1681C52.1692 58.1558 52.4328 58.1488 53.0547 57.7261C69.1114 41.5286 88.8714 28.3287 111.139 20.0072L116.09 18.1773L121.102 16.594L123.595 15.805L126.119 15.1358L131.15 13.8096C134.027 13.1527 136.941 12.487 139.913 11.8882L144.437 11.1379C145.957 10.8896 147.485 10.6096 149.048 10.4722C152.155 10.1182 154.865 9.37147 156.326 9.18831C164.436 8.74978 172.532 8.83784 182.034 9.56872C182.771 9.58105 183.918 9.64445 185.249 9.71314C186.58 9.78535 188.102 9.82057 189.578 9.94914C191.308 10.319 193.155 10.6853 195.093 11.0428C206.915 12.7829 218.346 15.8931 229.222 20.0301L229.209 19.9807L233.374 21.5552L237.625 23.4185C240.542 24.6232 243.398 26.1642 246.35 27.6154C247.831 28.3322 249.234 29.2075 250.69 30C252.119 30.8348 253.615 31.5745 254.996 32.4868C257.796 34.2515 260.634 35.9404 263.249 37.8267C267.466 40.7138 271.554 43.7681 275.501 46.9812C275.586 47.0552 275.675 47.1239 275.76 47.1961L275.838 47.263L278.543 49.5912L281.131 52.041L283.72 54.4926C284.578 55.315 285.372 56.1956 286.202 57.0445C285.801 56.4281 285.816 56.1798 285.831 55.935C284.552 54.7726 283.039 53.3971 281.545 52.0428C284.038 54.1949 286.213 56.141 287.999 57.7296C288.688 58.5644 289.439 59.3851 290.152 60.2815L292.354 63.0395L294.694 65.9085L297.024 68.994C301.156 73.9922 304.804 79.3391 308.267 84.7917C309.871 87.5884 311.64 90.3059 313.068 93.1995L315.319 97.4897L317.346 101.887C317.929 102.826 317.703 101.926 317.775 101.768C320.049 106.984 321.878 112.409 323.533 117.875C326.699 127.754 328.818 137.908 329.86 148.187C330.277 150.614 330.455 153.069 330.825 155.501L330.597 160.65C330.595 162.593 330.702 164.536 330.615 166.482L330.378 172.339C330.348 173.66 330.147 175.103 330.03 176.67C329.874 178.234 329.793 179.921 329.555 181.7L328.79 187.322C328.545 189.292 328.072 191.318 327.708 193.435C325.896 202.73 323.218 211.855 319.704 220.701C319.255 222.156 318.911 223.318 318.605 223.968C317.441 226.611 316.199 229.17 315 231.691C313.658 234.146 312.427 236.601 311.052 238.925C306.798 246.579 301.862 253.873 296.296 260.727C295.673 261.5 295.092 262.286 294.464 263.011L292.612 265.135C291.387 266.507 290.291 267.879 289.129 269.07C286.807 271.451 284.858 273.659 283.03 275.32C280.936 277.395 281.123 277.492 282.573 276.491C283.591 275.778 284.586 275.037 285.558 274.269L289.497 270.898C290.937 269.705 292.317 268.36 293.646 267.092C294.96 265.815 296.274 264.651 297.288 263.598C299.331 261.5 300.673 260.206 300.388 260.782C297.089 266.673 291.082 273.939 282.302 281.977C277.823 285.899 272.783 290.161 266.823 294.27C263.916 296.421 260.684 298.388 257.389 300.536C253.985 302.514 250.506 304.68 246.702 306.604C238.379 310.904 252.949 304.006 253.342 303.941C251.937 304.991 250.463 305.955 248.93 306.829C246.186 308.213 243.467 309.642 240.625 310.832C238.964 311.556 237.332 312.338 235.652 313.014L230.586 314.99L233.267 313.99C238.747 311.924 243.868 309.49 248.492 307.083C246.754 308.079 244.854 309.233 242.771 310.274C240.538 311.369 238.227 312.567 235.908 313.636L229.179 316.605C253.251 308.308 275.373 294.578 292.885 276.68C301.652 267.758 309.47 257.957 315.845 247.354C322.259 236.774 327.418 225.552 331.23 213.894C325.375 231.382 316.248 247.448 305.277 261.032C325.221 235.482 337.112 204.158 338.688 171.853C338.686 173.634 338.501 175.407 338.376 177.181C338.222 178.954 338.148 180.735 337.929 182.503C337.452 186.034 337.11 189.585 336.394 193.086C335.235 200.131 333.357 207.054 331.23 213.894C335.428 201.529 337.936 188.491 338.924 175.379C339.952 162.257 339.095 149.055 336.962 136.262C340.626 153.208 341.233 172.408 338.111 191.383C340.305 179.144 340.862 166.529 340.019 154.021C339.83 149.243 339.236 144.499 338.747 140.106C338.048 135.746 337.519 131.72 336.841 128.463C339.523 140.485 340.581 150.739 341.097 160.404C340.602 139.31 335.996 117.939 326.953 97.8631C331.888 108.766 335.941 120.496 338.415 132.555C340.903 144.601 341.936 156.926 341.348 168.782C341.32 167.394 341.381 166.008 341.296 164.615L341.097 160.404C341.63 179.513 338.528 198.452 332.38 216.263C329.295 225.167 325.484 233.82 320.872 242.053C316.268 250.274 310.953 258.118 304.982 265.505C311.8 257.95 318.999 247.27 324.744 235.539C330.463 223.783 334.708 211.069 337.628 199.965C333.333 219.905 324.807 239.581 312.437 257.152C300.1 274.737 283.941 290.198 265.245 302.065C246.571 313.969 225.383 322.208 203.641 326.278C192.845 328.312 181.871 329.378 170.865 329.464C160.059 329.518 149.271 328.625 138.638 326.795L144.216 327.801C146.076 328.136 147.962 328.321 149.833 328.585C153.575 329.155 157.36 329.37 161.132 329.7C168.693 330.103 176.294 330.238 183.871 329.691C191.462 329.309 199.004 328.234 206.511 326.922C210.234 326.119 214.002 325.462 217.68 324.432C219.525 323.942 221.392 323.514 223.224 322.97L228.71 321.283C225.94 322.097 223.026 323.174 219.913 323.965L216.013 325.054C224.197 322.983 232.208 320.336 239.977 317.135C243.531 315.664 247.03 314.075 250.467 312.371C244.027 315.612 237.386 318.478 230.579 320.952C217.599 325.548 204.11 328.728 190.372 330.43C188.312 330.74 186.433 330.837 184.749 331.005L180.242 331.427C177.59 331.626 175.632 331.716 174.262 331.859C171.52 332.118 171.13 332.359 172.222 332.558C173.311 332.757 175.88 332.915 179.04 333C182.19 332.982 185.926 332.822 189.325 332.528C223.475 329.205 254.829 316.489 279.956 297.453C305.099 278.413 324.356 253.121 335.089 224.422C335.763 222.756 336.28 221.037 336.841 219.333C337.385 217.622 337.986 215.93 338.478 214.204C339.39 210.735 340.468 207.306 341.166 203.783L342.315 198.526L343.219 193.221L343.667 190.567L343.986 187.896L344.621 182.552C345.916 168.262 345.404 153.819 343.113 139.645C341.888 131.625 339.735 122.102 336.96 113.62L334.825 107.484C334.083 105.535 333.294 103.696 332.592 101.967L331.558 99.4745L330.498 97.2361L328.677 93.4954C322.86 82.2961 315.55 71.6146 306.992 61.6799C298.444 51.7416 288.623 42.5395 277.55 34.5262L273.384 31.527L269.065 28.695L266.901 27.2755L264.667 25.9441L260.181 23.2882C254.064 19.935 247.8 16.7032 241.195 14.0227C234.659 11.2084 227.819 8.92414 220.856 6.88118C217.338 5.96538 213.837 4.9439 210.23 4.24119C208.434 3.87311 206.652 3.42577 204.834 3.11757L199.369 2.2C186.301 0.0179159 172.708 -0.501628 159.127 0.467013C145.554 1.46207 131.924 3.90657 118.854 8.12633L113.963 9.73427C112.327 10.2573 110.751 10.9354 109.142 11.5289C107.549 12.1612 105.921 12.7142 104.358 13.4116L99.6581 15.4774C98.0766 16.1396 96.5489 16.9005 95.0249 17.6701L90.4418 19.9543L85.983 22.4411C84.498 23.2724 83.0018 24.0843 81.5799 25.0089L77.266 27.6999C75.8144 28.5752 74.4704 29.5985 73.0689 30.5389C71.6935 31.5146 70.266 32.4234 68.9369 33.4519L64.9329 36.5111C63.5797 37.5061 62.3026 38.5857 61.0292 39.6671L57.1997 42.89L53.541 46.2697C52.3233 47.3951 51.0926 48.5081 49.9584 49.7057C40.6195 59.0364 32.4148 69.2159 25.7044 79.9872C19.124 90.5538 13.7317 101.747 9.61612 113.382C1.49494 136.137 -0.834674 159.213 0.249387 180.057C0.0154972 171.476 -0.0234844 159.171 1.64716 147.026ZM263.626 306.317C269.267 302.857 274.699 299.101 279.896 295.064C274.624 299.184 269.208 302.988 263.626 306.317ZM338.28 210.717C337.725 212.304 337.255 213.871 336.642 215.368L334.866 219.812L334.001 222.01L333.049 224.178C332.413 225.638 331.796 227.107 331.198 228.582C327.761 236.704 323.673 244.564 318.971 252.094C314.291 259.623 308.867 266.678 303.072 273.298C300.209 276.643 297.091 279.744 294.024 282.845L289.233 287.289C287.661 288.782 285.94 290.114 284.31 291.523C282.944 292.65 281.567 293.752 280.18 294.837C285.33 290.824 290.225 286.524 294.837 281.96C288.163 288.523 280.904 294.526 273.139 299.902C271.216 301.174 269.358 302.537 267.361 303.735L261.334 307.379L254.967 310.811C252.8 311.952 250.513 312.967 248.221 314.078C249.863 313.16 251.524 312.275 253.205 311.422C255.1 310.424 257.088 309.244 259.03 308.164C260.986 307.106 262.765 305.943 264.242 304.971C265.72 303.999 266.878 303.192 267.482 302.671C266.62 303.226 265.744 303.758 264.872 304.298C265.81 303.711 266.743 303.115 267.669 302.511C267.63 302.551 267.548 302.615 267.482 302.671C287.774 289.522 305.062 272.243 318.015 252.545C331.025 232.864 339.492 210.662 343 188.084C342.239 197.14 340.49 204.371 338.28 210.717ZM310.246 73.2578C315.833 81.2628 320.661 89.7212 324.675 98.5341C325.139 99.501 325.577 100.482 326.01 101.465C335.222 122.87 339.414 145.832 338.799 168.452C338.955 160.967 338.432 153.486 337.558 146.068C336.568 137.519 334.74 129.073 332.315 120.811C327.56 104.244 319.836 88.5412 310.031 74.2264C310.931 75.4064 311.88 76.685 312.862 78.0411C313.913 79.4446 314.898 80.892 315.813 82.3789L314.629 80.4258L313.35 78.5255L310.792 74.7284C309.051 72.2205 307.163 69.8042 305.346 67.3456C303.374 64.9962 301.505 62.5693 299.454 60.2815C297.902 58.6031 296.415 56.8684 294.841 55.2111C300.395 60.7676 305.609 66.7292 310.246 73.2578ZM179.847 2.02917C182.57 2.16654 185.299 2.41839 188.028 2.61211C190.263 2.78999 192.486 3.10348 194.688 3.33948C195.349 3.36589 196.047 3.40816 196.923 3.5015C197.797 3.61598 198.842 3.82908 200.207 4.12496C210.359 5.73114 219.621 8.1457 226.196 10.6395C238.815 15.171 250.556 20.8085 261.205 27.3195C271.859 33.8182 281.418 41.2099 289.506 49.283C293.234 53.1206 292.146 52.2841 290.091 50.4208L293.176 53.5275C291.81 52.2348 290.468 50.9244 289.081 49.6599L284.81 45.9791C285.849 46.8421 288.37 48.9079 290.091 50.4208C276.375 37.1433 260.342 26.1184 242.988 18.0082C225.621 9.90159 206.919 4.89459 188.224 2.89566C191.228 3.21267 192.702 3.28312 194.105 3.31834C192.091 3.09467 190.071 2.78823 188.028 2.61211C185.282 2.44128 182.542 2.20881 179.817 2.082L171.724 1.9006C174.405 1.89884 177.12 1.96929 179.847 2.02917Z" fill="url(#paint2_linear_124_17)"/>
<path d="M215.22 325.27L216.011 325.05C215.183 325.261 214.368 325.494 213.535 325.695C214.099 325.561 214.665 325.431 215.22 325.27ZM297.791 257.397C305.652 247.557 312.598 235.799 317.033 225.671L316.979 225.682C305.728 250.905 287.479 272.634 264.706 288.633C268.75 285.966 272.722 283.205 276.62 280.35C281.628 275.383 290.009 267.307 297.791 257.397ZM65.6198 286.799C78.9329 298.092 94.9878 307.919 112.858 314.539C119.827 317.028 126.938 319.208 134.211 320.744C137.819 321.628 141.504 322.174 145.161 322.824C146.993 323.132 148.849 323.303 150.691 323.55C152.536 323.777 154.377 324.034 156.235 324.136C147.847 323.254 139.52 321.933 131.413 319.839C123.313 317.752 115.371 315.172 107.711 312.003C100.09 308.784 92.7125 305.069 85.6322 300.883C78.6044 296.642 71.9403 291.907 65.6198 286.799ZM229.95 306.931L225.831 308.465L221.624 309.797C218.84 310.748 215.968 311.459 213.104 312.215C215.983 311.528 218.879 310.887 221.687 310.006L225.925 308.777L230.065 307.342C229.905 307.264 228.962 307.438 229.95 306.931ZM181.327 316.949C179.173 317.123 177.009 317.107 174.841 317.128C172.673 317.153 170.501 317.197 168.327 317.061L171.253 317.322C172.147 317.377 172.953 317.442 173.656 317.521C176.22 317.313 178.765 317.255 181.327 316.949ZM95.489 298.006C97.9782 299.392 100.622 300.612 103.244 301.958C103.902 302.299 105.093 302.689 106.588 303.206C103.393 301.905 100.332 300.292 97.2209 298.795C95.6802 298.018 94.197 297.148 92.686 296.338C91.1787 295.521 89.677 294.705 88.2514 293.793L89.9907 294.895L91.8043 295.924L95.489 298.006Z" fill="url(#paint3_linear_124_17)"/>
<path d="M119.735 106.96C118.525 111.388 119.908 116.801 127.688 121.721C128.725 122.378 129.589 122.87 130.454 123.362L130.108 125.002C129.935 125.494 130.281 126.15 130.799 126.314L132.701 127.134C133.22 127.298 133.738 127.298 134.257 126.806L135.467 125.494C137.023 123.526 139.097 121.557 142.036 119.097C141.518 118.441 140.999 117.457 140.653 116.473C132.009 116.309 128.552 114.177 127.86 110.732C126.996 106.632 129.416 102.039 133.565 102.203C139.616 102.367 136.677 105.976 135.813 105.976C134.948 105.976 134.43 105.648 134.084 105.32C133.565 104.827 132.874 105.156 132.874 105.812C132.874 107.452 134.775 109.748 138.579 107.944C142.036 106.304 142.209 103.679 141.172 101.547C140.135 98.9228 138.06 97.6106 135.64 97.1186L135.467 96.6265C135.467 96.1345 134.948 95.8064 134.603 95.8064L132.874 95.6424C132.355 95.6424 132.009 95.8064 131.837 96.2985L131.664 97.1186C130.108 97.2826 128.552 97.6106 127.342 98.1027L126.477 97.4466C126.132 97.1186 125.613 97.2826 125.267 97.4466L124.057 98.4307C123.711 98.7588 123.539 99.0868 123.711 99.5789L124.057 100.235C123.193 101.055 122.155 102.203 121.464 103.351L120.945 103.187C120.427 103.023 120.081 103.351 119.735 103.679L119.044 105.156C118.871 105.484 118.871 105.976 119.217 106.304L119.735 106.96Z" fill="url(#paint4_linear_124_17)"/>
<path d="M186.984 168.467C188.367 168.467 188.54 166.007 188.54 166.007C188.54 166.007 189.231 160.594 188.194 160.594H188.021C186.811 161.086 184.91 163.71 184.91 163.71C184.91 163.71 185.428 168.303 186.984 168.467Z" fill="url(#paint5_linear_124_17)"/>
<path d="M250.084 149.113H249.047C249.047 147.308 248.701 145.832 248.355 144.356L248.874 143.7C249.392 143.044 249.392 142.224 249.047 141.896L248.182 140.748C248.009 140.584 247.145 140.42 246.281 140.42C246.281 140.42 246.28 140.42 246.108 140.42C245.07 139.107 243.86 138.123 242.477 137.303L242.131 135.827C241.959 135.171 241.44 134.515 240.748 134.351L239.193 134.187C238.847 134.187 237.982 134.843 237.464 135.499C236.427 135.335 235.389 135.171 234.179 135.171C228.474 135.171 223.115 137.959 222.596 143.208C222.424 145.504 222.424 148.293 227.437 151.081C228.82 151.901 230.376 152.229 231.759 152.229C235.908 152.229 239.711 149.769 238.674 146.16C237.982 143.372 235.908 142.388 233.833 142.388C232.278 142.388 230.895 143.044 230.203 143.7C228.993 145.34 229.857 147.308 231.067 147.308C232.278 147.308 231.932 146.324 231.932 146.324C231.24 145.176 232.105 144.684 233.315 144.684C234.352 144.684 235.562 145.176 235.562 146.488C235.735 148.293 233.315 148.949 232.45 149.113C232.45 149.113 232.45 149.113 232.278 149.113C226.745 149.113 226.918 144.192 227.956 143.044C229.512 140.912 231.759 140.092 233.661 140.092C238.674 140.092 243.342 145.176 240.23 151.245C239.193 153.377 237.464 155.181 233.661 155.181C231.413 155.181 228.301 154.525 224.152 152.721C206.865 145.668 181.106 134.187 184.564 125.002C188.021 115.817 200.814 122.213 210.841 105.156C218.447 92.198 210.495 79.8966 203.58 76.4522C198.567 73.9919 193.726 72.8438 189.404 72.8438C165.202 72.8438 152.063 105.812 152.063 105.812C152.063 105.812 151.026 105.648 149.643 105.648C148.26 105.648 146.531 105.812 145.321 106.632C137.369 112.372 144.111 119.425 144.111 119.425C131.491 129.594 133.738 133.859 123.711 144.192C120.254 147.8 116.278 149.441 112.647 149.441C106.942 149.441 102.275 145.176 102.793 138.943C103.139 134.351 106.77 131.563 110.746 130.907C111.264 130.742 111.783 130.742 112.302 130.742C116.624 130.742 118.698 134.187 116.969 137.467C116.969 137.467 115.586 140.748 112.82 140.912H112.647C110.054 140.912 110.4 138.123 111.264 137.467C111.437 137.303 111.783 137.303 111.956 137.303C112.474 137.303 112.82 137.631 113.339 137.631C113.512 137.631 113.685 137.631 113.857 137.467C115.068 136.975 114.895 135.991 114.895 135.991C114.722 134.679 113.685 134.187 112.302 134.187C111.437 134.187 110.4 134.515 109.708 134.843C107.115 136.155 106.424 139.764 108.153 142.06C109.19 143.536 110.919 144.356 112.993 144.356C116.624 144.356 121.118 141.896 122.847 136.975C124.576 132.219 120.773 124.182 111.956 124.182C110.054 124.182 107.98 124.51 105.732 125.33C86.716 131.891 95.5326 162.398 112.302 162.398C113.166 162.398 113.857 162.398 114.722 162.234C118.352 161.578 121.637 159.938 124.749 157.806L125.094 158.134C125.44 158.462 125.786 158.626 126.132 158.626C126.477 158.626 126.823 158.462 127.169 158.298L128.725 156.986C129.243 156.658 129.416 156.001 129.243 155.345L128.898 154.361C130.108 153.377 131.145 152.229 132.182 151.245L132.701 151.573C133.047 151.737 133.22 151.737 133.565 151.737C134.084 151.737 134.43 151.573 134.775 151.245L135.986 149.769C136.331 149.277 136.504 148.621 136.158 148.129L135.64 147.308C136.677 145.996 137.714 144.848 138.752 143.7L139.097 143.864C139.27 144.028 139.616 144.028 139.962 144.028C140.48 144.028 140.826 143.864 141.172 143.372L142.382 141.896C142.728 141.404 142.901 140.748 142.555 140.256L142.209 139.6C144.111 137.467 145.667 136.155 146.877 136.155C147.568 136.155 148.087 136.647 148.606 137.631C148.951 138.287 149.297 139.107 149.989 140.092L149.816 140.256C149.124 140.748 148.951 141.568 149.47 142.224L150.507 143.864C150.853 144.356 151.372 144.52 151.89 144.52C152.063 144.52 152.063 144.52 152.236 144.52H152.582C153.273 145.668 153.965 146.816 154.829 148.129C154.138 148.621 153.965 149.441 154.483 150.097L155.521 151.737C155.866 152.229 156.385 152.393 156.904 152.393C157.076 152.393 157.076 152.393 157.249 152.393L157.768 152.229C158.459 153.377 159.324 154.525 160.188 155.673L160.015 155.837C159.497 156.329 159.324 157.15 159.842 157.806L161.053 159.282C161.398 159.61 161.744 159.938 162.263 159.938C162.436 159.938 162.609 159.938 162.781 159.938L163.127 159.774C170.907 170.271 180.415 180.112 187.676 180.112C187.848 180.112 187.848 180.112 188.021 180.112C200.987 179.62 200.295 154.197 191.133 154.197C190.614 154.197 190.096 154.197 189.577 154.361C183.699 156.001 184.045 162.89 184.045 162.89C184.045 162.89 186.984 158.954 188.713 158.954C190.096 158.954 190.96 160.922 189.923 167.647C189.577 170.107 188.54 171.255 187.33 171.255C180.76 171.255 164.51 141.24 164.51 135.991C164.51 135.499 164.856 135.335 165.375 135.335C166.066 135.335 166.93 135.663 168.313 136.155L167.968 137.303C167.795 137.959 168.141 138.779 168.832 139.107L170.734 139.764C170.907 139.764 171.079 139.928 171.252 139.928C171.598 139.928 172.117 139.764 172.462 139.436L173.327 138.451C174.191 138.943 175.228 139.436 176.266 139.928L175.92 141.24C175.747 141.896 176.093 142.716 176.784 143.044L178.686 143.7C178.859 143.7 179.032 143.864 179.205 143.864C179.55 143.864 180.069 143.7 180.415 143.372L181.279 142.552C182.489 143.208 183.872 143.864 185.255 144.684L184.91 145.832C184.737 146.488 185.082 147.308 185.774 147.636L187.676 148.293C187.848 148.293 188.021 148.457 188.194 148.457C188.54 148.457 189.059 148.293 189.404 147.964L190.096 147.308C191.479 147.965 192.862 148.785 194.072 149.441L193.726 150.589C193.553 151.245 193.899 152.065 194.591 152.393L196.492 153.049C196.665 153.049 196.838 153.213 197.011 153.213C197.357 153.213 197.875 153.049 198.221 152.721L198.912 152.065C204.099 154.689 209.458 157.314 214.471 159.446C221.041 162.234 227.783 163.874 233.488 163.874C240.921 163.874 246.799 161.086 248.182 153.869C248.182 153.705 248.182 153.377 248.355 153.213L249.047 153.049C249.738 152.885 250.43 152.229 250.43 151.737L250.602 150.261C250.948 149.605 250.602 149.277 250.084 149.113ZM174.364 122.378C170.734 122.378 167.795 119.589 167.795 116.145C167.795 112.7 170.734 109.912 174.364 109.912C177.994 109.912 180.933 112.7 180.933 116.145C180.933 119.589 177.994 122.378 174.364 122.378Z" fill="url(#paint6_linear_124_17)"/>
<path d="M170.388 114.177C170.388 114.177 169.524 118.769 174.191 118.769C178.859 118.769 177.994 114.177 177.994 114.177C174.018 116.473 170.388 114.177 170.388 114.177Z" fill="url(#paint7_linear_124_17)"/>
<path d="M217.756 113.028C217.929 113.356 218.447 113.685 218.966 113.52L219.658 113.356C221.213 114.997 223.115 115.981 222.596 118.769C221.905 122.378 217.756 124.674 207.383 124.51C200.987 124.346 196.319 122.213 193.553 120.573C189.923 121.721 187.848 122.706 186.811 125.494C186.293 126.806 186.811 128.282 188.021 130.086C190.096 130.907 192.343 131.727 194.418 132.383V133.531C194.418 134.023 194.763 134.515 195.282 134.679L197.184 135.335C197.702 135.499 198.394 135.335 198.74 134.843L199.431 133.859C200.814 134.187 202.37 134.351 203.926 134.515L204.444 135.991C204.617 136.483 205.136 136.811 205.655 136.811L207.729 136.647C208.248 136.647 208.766 136.155 208.939 135.663L209.112 134.679C210.841 134.515 212.57 134.351 214.298 133.859L215.509 135.007C215.854 135.335 216.546 135.499 217.064 135.335L218.966 134.515C219.485 134.351 219.83 133.695 219.658 133.203L219.485 131.891C220.695 131.399 221.732 130.742 222.942 129.922C237.291 120.901 230.03 113.356 225.362 109.748C220.868 106.14 226.054 102.695 231.586 102.695C233.142 102.695 235.908 102.859 237.637 103.023C237.982 103.023 238.155 102.531 237.81 102.367C233.488 100.071 229.512 99.7429 226.4 100.563L226.054 100.235C225.708 99.9069 225.362 99.7429 224.844 99.9069L223.288 100.563C222.769 100.727 222.596 101.219 222.596 101.547V102.039C221.732 102.531 221.041 103.023 220.522 103.679L219.83 103.351C219.312 103.187 218.966 103.515 218.793 103.843L217.929 105.156C217.756 105.484 217.756 105.976 218.102 106.304L218.447 106.632C217.929 107.78 217.756 108.764 217.756 109.748L217.064 110.404C216.719 110.732 216.719 111.224 216.892 111.552L217.756 113.028Z" fill="url(#paint8_linear_124_17)"/>
<path d="M69.8118 236.121C58.4251 236.566 60.0457 209.659 71.0486 209.659C82.1368 209.659 81.4971 235.676 69.8118 236.121ZM70.9206 230.456C73.65 230.537 74.5456 224.104 74.6736 221.15C74.8015 218.196 73.8206 214.069 71.2192 214.15C68.6177 214.231 67.2103 220.543 67.2956 222.971C67.4236 226.087 68.1486 230.376 70.9206 230.456ZM97.7882 234.584C90.5382 242.231 80.9853 239.803 80.9 225.52C80.8147 213.26 90.8367 208.405 96.8073 213.948L95.0161 217.63C92.6706 215.364 86.1882 217.387 85.6765 225.399C85.2073 232.48 90.6661 236.809 94.675 230.78L97.7882 234.584ZM113.653 209.578L113.269 214.353L108.876 214.514L109.175 234.665L102.735 235.676L103.929 214.676L99.2808 214.838L99.4088 210.387L113.653 209.578ZM122.993 236.121C111.606 236.566 113.226 209.659 124.229 209.659C135.317 209.659 134.678 235.676 122.993 236.121ZM124.101 230.456C126.831 230.537 127.726 224.104 127.854 221.15C127.982 218.196 127.001 214.069 124.4 214.15C121.798 214.231 120.391 220.543 120.476 222.971C120.604 226.087 121.329 230.376 124.101 230.456ZM134.081 233.977L135.147 207.555L142.056 207.474C142.056 207.474 149.391 207.798 148.538 214.312C147.685 220.827 141.544 220.624 139.369 220.503L139.156 233.208L134.081 233.977ZM139.625 216.052C139.625 216.052 144.572 216.376 144.572 213.867C144.572 211.358 139.881 211.358 139.881 211.358L139.625 216.052ZM156.001 233.815C146.107 234.381 151.651 209.578 151.651 209.578H156.47C156.47 209.578 151.907 227.543 156.129 227.867C160.351 228.231 161.673 210.711 161.673 210.711L165.895 210.387C165.895 210.387 165.895 233.248 156.001 233.815ZM175.704 234.907C172.761 234.665 167.814 231.468 167.814 231.468L169.52 226.977C169.52 226.977 173.486 230.335 175.789 230.133C178.092 229.93 179.372 228.069 178.903 225.844C177.922 221.11 169.819 220.827 169.819 216.416C169.819 212.006 173.103 209.093 175.704 208.971C179.841 208.769 182.016 210.751 182.016 210.751C181.803 211.035 180.609 213.422 180.609 213.422C180.609 213.422 176.259 211.925 175.534 215.445C174.553 220.139 184.319 219.694 184.489 226.006C184.703 233.167 178.604 235.15 175.704 234.907ZM207.305 234.907C204.363 234.665 199.416 231.468 199.416 231.468L201.122 226.977C201.122 226.977 205.088 230.335 207.391 230.133C209.694 229.93 210.973 228.069 210.504 225.844C209.523 221.11 201.42 220.827 201.42 216.416C201.42 212.006 204.704 209.093 207.305 208.971C211.442 208.769 213.617 210.751 213.617 210.751C213.404 211.035 212.21 213.422 212.21 213.422C212.21 213.422 207.86 211.925 207.135 215.445C206.154 220.139 215.92 219.694 216.091 226.006C216.304 233.167 210.205 235.15 207.305 234.907ZM231.955 209.578L231.572 214.353L227.179 214.514L227.477 234.665L221.038 235.676L222.232 214.676L217.583 214.838L217.711 210.387L231.955 209.578ZM241.295 236.121C229.908 236.566 231.529 209.659 242.532 209.659C253.62 209.659 252.98 235.676 241.295 236.121ZM242.404 230.456C245.133 230.537 246.029 224.104 246.157 221.15C246.285 218.196 245.304 214.069 242.702 214.15C240.101 214.231 238.694 220.543 238.779 222.971C238.907 226.087 239.632 230.376 242.404 230.456ZM263.642 234.624L258.738 224.185C258.269 224.266 257.842 224.347 257.458 224.387L257.672 235.029L252.383 234.665L252.852 209.012L257.458 208.445C262.021 207.879 266.03 210.751 266.286 215.243C266.457 218.237 265.348 220.705 263.045 222.364L267.992 231.913L263.642 234.624ZM257.288 216.78L257.33 217.913C258.055 218.035 261.638 218.399 261.808 215.85C262.021 212.127 259.079 213.058 257.629 213.26L257.288 216.78ZM282.577 236.202L270.935 236L270.338 211.682L281.724 210.266L281.596 214.838H275.071V222.566L280.53 222.121L280.829 226.734L275.285 226.653L274.986 232.52L283.004 232.237L282.577 236.202Z" fill="url(#paint9_linear_124_17)"/>
<path d="M86.5875 268.423C86.8059 271.099 84.0399 271.755 82.766 271.807C81.4922 271.859 80.4731 271.651 80.4731 271.651L80 260.774C80 260.774 81.11 260.584 82.1291 260.533C83.13 260.481 85.0407 260.602 85.1499 262.863C85.2045 263.917 84.6222 264.659 83.8579 265.142C85.2045 265.419 86.4055 266.213 86.5875 268.423ZM83.3483 262.794C83.4029 261.741 81.9289 262.155 81.9289 262.155L82.1109 264.573C82.7478 264.106 83.3119 263.416 83.3483 262.794ZM82.4749 269.769C82.4749 269.769 84.4038 269.7 84.2036 268.198C84.0217 266.817 83.039 266.454 82.2383 266.385L82.4749 269.769ZM97.6152 271.306L97.0511 268.716L94.7946 268.923L94.3397 271.392L92.4289 270.909L94.6672 259.583L96.8509 259.41L99.9263 271.047L97.6152 271.306ZM95.1403 267.128L96.6507 266.852L95.8682 263.243L95.1403 267.128ZM108.934 270.805C107.678 270.702 105.568 269.338 105.568 269.338L106.295 267.421C106.295 267.421 107.988 268.854 108.97 268.768C109.953 268.682 110.499 267.888 110.299 266.938C109.88 264.918 106.423 264.797 106.423 262.915C106.423 261.033 107.824 259.79 108.934 259.738C110.699 259.652 111.627 260.498 111.627 260.498C111.536 260.619 111.027 261.637 111.027 261.637C111.027 261.637 109.171 260.999 108.861 262.501C108.443 264.504 112.61 264.314 112.683 267.007C112.774 270.063 110.172 270.909 108.934 270.805ZM123.092 270.805L120.417 266.852L120.289 267.007L120.016 271.271H118.197L118.561 260.084H120.744L120.471 264.348L122.728 261.102L124.493 261.361L121.636 265.194L124.766 270.028L123.092 270.805ZM136.048 271.358L131.08 271.271L130.826 260.895L135.684 260.291L135.63 262.242H132.846V265.539L135.175 265.35L135.302 267.318L132.937 267.283L132.809 269.787L136.23 269.666L136.048 271.358ZM147.822 259.997L147.658 262.035L145.784 262.104L145.911 270.702L143.164 271.133L143.673 262.173L141.69 262.242L141.744 260.343L147.822 259.997ZM159.869 268.423C160.087 271.099 157.321 271.755 156.047 271.807C154.774 271.859 153.755 271.651 153.755 271.651L153.281 260.774C153.281 260.774 154.391 260.584 155.411 260.533C156.411 260.481 158.322 260.602 158.431 262.863C158.486 263.917 157.904 264.659 157.139 265.142C158.486 265.419 159.687 266.213 159.869 268.423ZM156.63 262.794C156.684 261.741 155.21 262.155 155.21 262.155L155.392 264.573C156.029 264.106 156.593 263.416 156.63 262.794ZM155.756 269.769C155.756 269.769 157.685 269.7 157.485 268.198C157.303 266.817 156.32 266.454 155.52 266.385L155.756 269.769ZM170.897 271.306L170.333 268.716L168.076 268.923L167.621 271.392L165.71 270.909L167.949 259.583L170.132 259.41L173.208 271.047L170.897 271.306ZM168.422 267.128L169.932 266.852L169.15 263.243L168.422 267.128ZM184.399 271.306L179.468 271.202L179.504 260.17L181.688 260.101L181.105 269.407L184.399 269.649V271.306ZM195.227 271.306L190.295 271.202L190.332 260.17L192.515 260.101L191.933 269.407L195.227 269.649V271.306ZM214.243 270.805C212.988 270.702 210.877 269.338 210.877 269.338L211.605 267.421C211.605 267.421 213.297 268.854 214.28 268.768C215.262 268.682 215.808 267.888 215.608 266.938C215.189 264.918 211.732 264.797 211.732 262.915C211.732 261.033 213.133 259.79 214.243 259.738C216.008 259.652 216.936 260.498 216.936 260.498C216.845 260.619 216.336 261.637 216.336 261.637C216.336 261.637 214.48 260.999 214.17 262.501C213.752 264.504 217.919 264.314 217.992 267.007C218.083 270.063 215.481 270.909 214.243 270.805ZM227.928 260.032L229.766 259.842V270.857L227.491 270.736L227.691 265.867L225.853 265.798L225.835 271.6L223.633 271.444L223.87 260.239L225.89 259.997L225.871 264.486C226.436 264.486 227.2 264.504 227.746 264.521L227.928 260.032ZM238.755 271.323C233.896 271.513 234.588 260.032 239.283 260.032C244.014 260.032 243.741 271.133 238.755 271.323ZM239.228 268.906C240.393 268.941 240.775 266.196 240.83 264.935C240.884 263.675 240.466 261.914 239.356 261.948C238.246 261.983 237.645 264.676 237.682 265.712C237.736 267.042 238.046 268.872 239.228 268.906ZM253.35 271.358L248.382 271.271L248.127 260.895L252.986 260.291L252.931 262.242H250.147V265.539L252.476 265.35L252.604 267.318L250.238 267.283L250.11 269.787L253.532 269.666L253.35 271.358ZM262.357 270.805C261.102 270.702 258.991 269.338 258.991 269.338L259.719 267.421C259.719 267.421 261.411 268.854 262.394 268.768C263.376 268.682 263.922 267.888 263.722 266.938C263.304 264.918 259.846 264.797 259.846 262.915C259.846 261.033 261.247 259.79 262.357 259.738C264.123 259.652 265.051 260.498 265.051 260.498C264.96 260.619 264.45 261.637 264.45 261.637C264.45 261.637 262.594 260.999 262.285 262.501C261.866 264.504 266.033 264.314 266.106 267.007C266.197 270.063 263.595 270.909 262.357 270.805Z" fill="url(#paint10_linear_124_17)"/>
<defs>
<linearGradient id="paint0_linear_124_17" x1="1.58221" y1="179.933" x2="233.917" y2="179.933" gradientUnits="userSpaceOnUse">
<stop stop-color="#EF4136"/>
<stop offset="1" stop-color="#FBB040"/>
</linearGradient>
<linearGradient id="paint1_linear_124_17" x1="85.699" y1="133.391" x2="330.593" y2="133.391" gradientUnits="userSpaceOnUse">
<stop stop-color="#EF4136"/>
<stop offset="1" stop-color="#FBB040"/>
</linearGradient>
<linearGradient id="paint2_linear_124_17" x1="0" y1="0" x2="345.318" y2="0" gradientUnits="userSpaceOnUse">
<stop stop-color="#EF4136"/>
<stop offset="1" stop-color="#FBB040"/>
</linearGradient>
<linearGradient id="paint3_linear_124_17" x1="65.6198" y1="225.671" x2="317.033" y2="225.671" gradientUnits="userSpaceOnUse">
<stop stop-color="#EF4136"/>
<stop offset="1" stop-color="#FBB040"/>
</linearGradient>
<linearGradient id="paint4_linear_124_17" x1="118.93" y1="95.6424" x2="142.036" y2="95.6424" gradientUnits="userSpaceOnUse">
<stop stop-color="#EF4136"/>
<stop offset="1" stop-color="#FBB040"/>
</linearGradient>
<linearGradient id="paint5_linear_124_17" x1="184.91" y1="160.594" x2="188.766" y2="160.594" gradientUnits="userSpaceOnUse">
<stop stop-color="#EF4136"/>
<stop offset="1" stop-color="#FBB040"/>
</linearGradient>
<linearGradient id="paint6_linear_124_17" x1="95" y1="72.8438" x2="250.742" y2="72.8438" gradientUnits="userSpaceOnUse">
<stop stop-color="#EF4136"/>
<stop offset="1" stop-color="#FBB040"/>
</linearGradient>
<linearGradient id="paint7_linear_124_17" x1="170.325" y1="114.177" x2="178.058" y2="114.177" gradientUnits="userSpaceOnUse">
<stop stop-color="#EF4136"/>
<stop offset="1" stop-color="#FBB040"/>
</linearGradient>
<linearGradient id="paint8_linear_124_17" x1="186.611" y1="99.8426" x2="237.998" y2="99.8426" gradientUnits="userSpaceOnUse">
<stop stop-color="#EF4136"/>
<stop offset="1" stop-color="#FBB040"/>
</linearGradient>
<linearGradient id="paint9_linear_124_17" x1="62" y1="207.474" x2="283.004" y2="207.474" gradientUnits="userSpaceOnUse">
<stop stop-color="#EF4136"/>
<stop offset="1" stop-color="#FBB040"/>
</linearGradient>
<linearGradient id="paint10_linear_124_17" x1="80" y1="259.41" x2="266.108" y2="259.41" gradientUnits="userSpaceOnUse">
<stop stop-color="#EF4136"/>
<stop offset="1" stop-color="#FBB040"/>
</linearGradient>
</defs>
</svg>
