<svg width="222" height="61" viewBox="0 0 222 61" fill="none" xmlns="http://www.w3.org/2000/svg">
<path d="M7.8118 28.6471C-3.57493 29.0922 -1.95434 2.18495 9.04857 2.18495C20.1368 2.18495 19.4971 28.202 7.8118 28.6471ZM8.92062 22.9824C11.65 23.0633 12.5456 16.6299 12.6736 13.6761C12.8015 10.7224 11.8206 6.5953 9.21915 6.67623C6.61769 6.75715 5.21034 13.0692 5.29564 15.4969C5.42358 18.6125 6.14857 22.9015 8.92062 22.9824ZM35.7882 27.1095C28.5382 34.7568 18.9853 32.3291 18.9 18.046C18.8147 5.78606 28.8367 0.930626 34.8073 6.47392L33.0161 10.156C30.6706 7.89009 24.1882 9.91319 23.6765 17.9247C23.2073 25.0055 28.6662 29.3349 32.675 23.3061L35.7882 27.1095ZM51.6529 2.10402L51.269 6.87854L46.8764 7.04038L47.1749 27.1905L40.7352 28.202L41.9294 7.20223L37.2808 7.36408L37.4088 2.91326L51.6529 2.10402ZM60.9925 28.6471C49.6058 29.0922 51.2264 2.18495 62.2293 2.18495C73.3175 2.18495 72.6778 28.202 60.9925 28.6471ZM62.1014 22.9824C64.8308 23.0633 65.7263 16.6299 65.8543 13.6761C65.9822 10.7224 65.0013 6.5953 62.3999 6.67623C59.7984 6.75715 58.3911 13.0692 58.4764 15.4969C58.6043 18.6125 59.3293 22.9015 62.1014 22.9824ZM72.0807 26.5026L73.1469 0.0809239L80.0557 0C80.0557 0 87.391 0.323695 86.5381 6.83807C85.6851 13.3525 79.544 13.1501 77.369 13.0288L77.1557 25.7338L72.0807 26.5026ZM77.6248 8.57794C77.6248 8.57794 82.5719 8.90164 82.5719 6.39299C82.5719 3.88435 77.8807 3.88435 77.8807 3.88435L77.6248 8.57794ZM94.0013 26.3407C84.1072 26.9072 89.6513 2.10402 89.6513 2.10402H94.4704C94.4704 2.10402 89.9072 20.0691 94.1292 20.3928C98.3513 20.757 99.6733 3.23696 99.6733 3.23696L103.895 2.91326C103.895 2.91326 103.895 25.7743 94.0013 26.3407V26.3407ZM113.704 27.4332C110.762 27.1904 105.814 23.994 105.814 23.994L107.52 19.5027C107.52 19.5027 111.487 22.861 113.789 22.6587C116.092 22.4564 117.372 20.5951 116.903 18.3697C115.922 13.6357 107.819 13.3525 107.819 8.9421C107.819 4.53174 111.103 1.61848 113.704 1.49709C117.841 1.29478 120.016 3.27742 120.016 3.27742C119.803 3.56065 118.609 5.94791 118.609 5.94791C118.609 5.94791 114.259 4.45082 113.534 7.97101C112.553 12.6646 122.319 12.2195 122.489 18.5316C122.703 25.6934 116.604 27.676 113.704 27.4332V27.4332ZM145.306 27.4332C142.363 27.1904 137.416 23.994 137.416 23.994L139.122 19.5027C139.122 19.5027 143.088 22.861 145.391 22.6587C147.694 22.4564 148.973 20.5951 148.504 18.3697C147.523 13.6357 139.42 13.3525 139.42 8.9421C139.42 4.53174 142.704 1.61848 145.306 1.49709C149.442 1.29478 151.617 3.27742 151.617 3.27742C151.404 3.56065 150.21 5.94791 150.21 5.94791C150.21 5.94791 145.86 4.45082 145.135 7.97101C144.154 12.6646 153.92 12.2195 154.091 18.5316C154.304 25.6934 148.206 27.676 145.306 27.4332V27.4332ZM169.955 2.10402L169.572 6.87854L165.179 7.04038L165.478 27.1905L159.038 28.202L160.232 7.20223L155.583 7.36408L155.711 2.91326L169.955 2.10402ZM179.295 28.6471C167.908 29.0922 169.529 2.18495 180.532 2.18495C191.62 2.18495 190.98 28.202 179.295 28.6471ZM180.404 22.9824C183.133 23.0633 184.029 16.6299 184.157 13.6761C184.285 10.7224 183.304 6.5953 180.702 6.67623C178.101 6.75715 176.694 13.0692 176.779 15.4969C176.907 18.6125 177.632 22.9015 180.404 22.9824ZM201.642 27.15L196.738 16.7108C196.269 16.7917 195.842 16.8726 195.458 16.9131L195.672 27.5546L190.383 27.1905L190.852 1.53756L195.458 0.971088C200.022 0.40462 204.03 3.27742 204.286 7.7687C204.457 10.7629 203.348 13.2311 201.045 14.89L205.992 24.439L201.642 27.15ZM195.288 9.30625L195.33 10.4392C196.055 10.5606 199.638 10.9247 199.808 8.37563C200.022 4.65313 197.079 5.58375 195.629 5.78606L195.288 9.30625ZM220.577 28.728L208.935 28.5257L208.338 4.20805L219.724 2.79188L219.596 7.36408H213.072V15.0923L218.53 14.6472L218.829 19.2599L213.285 19.179L212.986 25.046L221.004 24.7627L220.577 28.728Z" fill="url(#paint0_linear_155_4)"/>
<path d="M23.5875 56.9524C23.8059 59.6285 21.0399 60.2846 19.766 60.3364C18.4922 60.3882 17.4731 60.181 17.4731 60.181L17 49.3039C17 49.3039 18.11 49.114 19.1291 49.0622C20.13 49.0104 22.0407 49.1312 22.1499 51.393C22.2045 52.4462 21.6222 53.1886 20.8579 53.672C22.2045 53.9483 23.4055 54.7425 23.5875 56.9524V56.9524ZM20.3483 51.3239C20.4029 50.2708 18.9289 50.6851 18.9289 50.6851L19.1109 53.1023C19.7478 52.6361 20.312 51.9455 20.3483 51.3239ZM19.4749 58.2991C19.4749 58.2991 21.4038 58.23 21.2036 56.728C21.0217 55.3467 20.039 54.9842 19.2383 54.9151L19.4749 58.2991ZM34.6152 59.8357L34.0511 57.2459L31.7946 57.4531L31.3397 59.922L29.4289 59.4386L31.6672 48.1126L33.8509 47.9399L36.9263 59.5767L34.6152 59.8357ZM32.1403 55.6575L33.6507 55.3813L32.8682 51.7728L32.1403 55.6575ZM45.9341 59.335C44.6784 59.2314 42.5675 57.8675 42.5675 57.8675L43.2954 55.951C43.2954 55.951 44.9878 57.3841 45.9705 57.2977C46.9531 57.2114 47.4991 56.4172 47.2989 55.4676C46.8803 53.4476 43.4228 53.3267 43.4228 51.4448C43.4228 49.5629 44.824 48.3198 45.9341 48.268C47.6992 48.1817 48.6273 49.0277 48.6273 49.0277C48.5363 49.1485 48.0268 50.1672 48.0268 50.1672C48.0268 50.1672 46.1706 49.5283 45.8613 51.0304C45.4427 53.0332 49.61 52.8433 49.6828 55.5367C49.7737 58.5926 47.1715 59.4386 45.9341 59.335V59.335ZM60.0917 59.335L57.4167 55.3813L57.2893 55.5367L57.0164 59.8012H55.1966L55.5606 48.6133H57.7443L57.4713 52.8778L59.7278 49.6319L61.493 49.8909L58.6359 53.7238L61.7659 58.5581L60.0917 59.335ZM73.0484 59.8875L68.0805 59.8012L67.8257 49.4248L72.6844 48.8205L72.6298 50.7714H69.8456V54.0691L72.1749 53.8792L72.3023 55.8474L69.9366 55.8129L69.8092 58.3164L73.2304 58.1955L73.0484 59.8875ZM84.8222 48.527L84.6584 50.5643L82.7841 50.6333L82.9114 59.2314L80.1636 59.6631L80.6732 50.7024L78.6896 50.7714L78.7442 48.8723L84.8222 48.527ZM96.869 56.9524C97.0873 59.6285 94.3213 60.2846 93.0475 60.3364C91.7736 60.3882 90.7546 60.181 90.7546 60.181L90.2815 49.3039C90.2815 49.3039 91.3915 49.114 92.4106 49.0622C93.4114 49.0104 95.3222 49.1312 95.4313 51.393C95.4859 52.4462 94.9036 53.1886 94.1393 53.672C95.4859 53.9483 96.687 54.7425 96.869 56.9524V56.9524ZM93.6298 51.3239C93.6844 50.2708 92.2104 50.6851 92.2104 50.6851L92.3924 53.1023C93.0293 52.6361 93.5934 51.9455 93.6298 51.3239ZM92.7563 58.2991C92.7563 58.2991 94.6852 58.23 94.4851 56.728C94.3031 55.3467 93.3204 54.9842 92.5197 54.9151L92.7563 58.2991ZM107.897 59.8357L107.333 57.2459L105.076 57.4531L104.621 59.922L102.71 59.4386L104.949 48.1126L107.132 47.9399L110.208 59.5767L107.897 59.8357ZM105.422 55.6575L106.932 55.3813L106.15 51.7728L105.422 55.6575ZM121.399 59.8357L116.468 59.7321L116.504 48.6996L118.688 48.6306L118.105 57.9365L121.399 58.1783V59.8357V59.8357ZM132.227 59.8357L127.295 59.7321L127.332 48.6996L129.515 48.6306L128.933 57.9365L132.227 58.1783V59.8357V59.8357ZM151.243 59.335C149.988 59.2314 147.877 57.8675 147.877 57.8675L148.605 55.951C148.605 55.951 150.297 57.3841 151.28 57.2977C152.262 57.2114 152.808 56.4172 152.608 55.4676C152.189 53.4476 148.732 53.3267 148.732 51.4448C148.732 49.5629 150.133 48.3198 151.243 48.268C153.008 48.1817 153.936 49.0277 153.936 49.0277C153.845 49.1485 153.336 50.1672 153.336 50.1672C153.336 50.1672 151.48 49.5283 151.17 51.0304C150.752 53.0332 154.919 52.8433 154.992 55.5367C155.083 58.5926 152.481 59.4386 151.243 59.335V59.335ZM164.928 48.5615L166.766 48.3716V59.3868L164.491 59.266L164.691 54.3972L162.853 54.3281L162.835 60.1292L160.633 59.9738L160.87 48.7687L162.89 48.527L162.871 53.0159C163.436 53.0159 164.2 53.0332 164.746 53.0505L164.928 48.5615ZM175.755 59.853C170.897 60.0429 171.588 48.5615 176.283 48.5615C181.014 48.5615 180.741 59.6631 175.755 59.853ZM176.228 57.4358C177.393 57.4704 177.775 54.7252 177.83 53.4648C177.884 52.2045 177.466 50.4434 176.356 50.4779C175.246 50.5125 174.645 53.2059 174.682 54.2418C174.736 55.5712 175.046 57.4013 176.228 57.4358V57.4358ZM190.35 59.8875L185.382 59.8012L185.127 49.4248L189.986 48.8205L189.931 50.7714H187.147V54.0691L189.476 53.8792L189.604 55.8474L187.238 55.8129L187.111 58.3164L190.532 58.1955L190.35 59.8875ZM199.357 59.335C198.102 59.2314 195.991 57.8675 195.991 57.8675L196.719 55.951C196.719 55.951 198.411 57.3841 199.394 57.2977C200.377 57.2114 200.922 56.4172 200.722 55.4676C200.304 53.4476 196.846 53.3267 196.846 51.4448C196.846 49.5629 198.247 48.3198 199.357 48.268C201.123 48.1817 202.051 49.0277 202.051 49.0277C201.96 49.1485 201.45 50.1672 201.45 50.1672C201.45 50.1672 199.594 49.5283 199.285 51.0304C198.866 53.0332 203.033 52.8433 203.106 55.5367C203.197 58.5926 200.595 59.4386 199.357 59.335V59.335Z" fill="url(#paint1_linear_155_4)"/>
<defs>
<linearGradient id="paint0_linear_155_4" x1="0" y1="0" x2="221.004" y2="0" gradientUnits="userSpaceOnUse">
<stop stop-color="#EF4136"/>
<stop offset="1" stop-color="#FBB040"/>
</linearGradient>
<linearGradient id="paint1_linear_155_4" x1="17" y1="47.9399" x2="203.108" y2="47.9399" gradientUnits="userSpaceOnUse">
<stop stop-color="#EF4136"/>
<stop offset="1" stop-color="#FBB040"/>
</linearGradient>
</defs>
</svg>
